<svg width="24" height="24" viewBox="0 0 24 24" fill="none" xmlns="http://www.w3.org/2000/svg">
<g clip-path="url(#clip0_173_1258)">
<path d="M11.9992 5.25L14.9992 4.5C14.9992 4.5 17.4817 8.37656 18.6461 12.7228C18.7497 13.1039 18.777 13.5016 18.7265 13.8933C18.676 14.2849 18.5487 14.6627 18.3518 15.005C18.155 15.3474 17.8925 15.6475 17.5794 15.8881C17.2663 16.1288 16.9088 16.3052 16.5274 16.4074C16.1459 16.5096 15.7481 16.5355 15.3566 16.4835C14.9652 16.4316 14.5878 16.3029 14.2462 16.1048C13.9046 15.9067 13.6055 15.6432 13.366 15.3292C13.1265 15.0153 12.9513 14.6571 12.8505 14.2753C11.6861 9.92906 11.9992 5.25 11.9992 5.25Z" stroke="#FF7385" stroke-width="1.5" stroke-linecap="round" stroke-linejoin="round"/>
<path d="M16.5234 16.397L17.8697 21.4192" stroke="#FF7385" stroke-width="1.5" stroke-linecap="round" stroke-linejoin="round"/>
<path d="M20.25 20.7816L15.75 21.9872" stroke="#FF7385" stroke-width="1.5" stroke-linecap="round" stroke-linejoin="round"/>
<path d="M12.0019 3L9.00188 2.25C9.00188 2.25 6.51938 6.12656 5.35501 10.4728C5.25145 10.8539 5.22413 11.2516 5.27464 11.6433C5.32514 12.0349 5.45247 12.4127 5.64931 12.755C5.84615 13.0974 6.10864 13.3975 6.42172 13.6381C6.7348 13.8788 7.09231 14.0552 7.47375 14.1574C7.85518 14.2596 8.25303 14.2855 8.64449 14.2335C9.03594 14.1816 9.41329 14.0529 9.7549 13.8548C10.0965 13.6567 10.3956 13.3932 10.6352 13.0792C10.8747 12.7653 11.0498 12.4071 11.1506 12.0253C12.2166 7.66875 12.0019 3 12.0019 3Z" stroke="#FF7385" stroke-width="1.5" stroke-linecap="round" stroke-linejoin="round"/>
<path d="M7.47516 14.147L6.12891 19.1692" stroke="#FF7385" stroke-width="1.5" stroke-linecap="round" stroke-linejoin="round"/>
<path d="M3.75 18.5316L8.25 19.7372" stroke="#FF7385" stroke-width="1.5" stroke-linecap="round" stroke-linejoin="round"/>
<path d="M12.0469 9.17625L16.8703 7.96875" stroke="#FF7385" stroke-width="1.5" stroke-linecap="round" stroke-linejoin="round"/>
<path d="M11.9006 7.09968L7.05469 5.88843" stroke="#FF7385" stroke-width="1.5" stroke-linecap="round" stroke-linejoin="round"/>
<path d="M18 3.75L19.5 3" stroke="#FF7385" stroke-width="1.5" stroke-linecap="round" stroke-linejoin="round"/>
<path d="M19.5 6.75H21" stroke="#FF7385" stroke-width="1.5" stroke-linecap="round" stroke-linejoin="round"/>
<path d="M5.25 3L3.75 2.25" stroke="#FF7385" stroke-width="1.5" stroke-linecap="round" stroke-linejoin="round"/>
<path d="M3.75 6H2.25" stroke="#FF7385" stroke-width="1.5" stroke-linecap="round" stroke-linejoin="round"/>
</g>
<defs>
<clipPath id="clip0_173_1258">
<rect width="24" height="24" fill="white"/>
</clipPath>
</defs>
</svg>
