<svg width="36" height="36" viewBox="0 0 36 36" fill="none" xmlns="http://www.w3.org/2000/svg">
<g clip-path="url(#clip0_173_1458)">
<path opacity="0.2" d="M10.5781 8.83252C9.5352 11.0484 8.68229 13.3489 8.0286 15.7091C7.87326 16.2807 7.83229 16.8773 7.90805 17.4648C7.9838 18.0522 8.17479 18.619 8.47006 19.1324C8.76532 19.6459 9.15906 20.0961 9.62868 20.457C10.0983 20.818 10.6346 21.0827 11.2067 21.236C11.7789 21.3893 12.3756 21.4281 12.9628 21.3502C13.55 21.2723 14.116 21.0792 14.6284 20.7821C15.1408 20.485 15.5896 20.0896 15.9488 19.6187C16.3081 19.1478 16.5709 18.6105 16.722 18.0378C17.2938 15.609 17.67 13.1383 17.847 10.6494L10.5781 8.83252Z" fill="url(#paint0_linear_173_1458)"/>
<path opacity="0.2" d="M25.3038 11.9531C26.4 14.247 27.294 16.6321 27.9756 19.0814C28.131 19.653 28.1719 20.2496 28.0962 20.8371C28.0204 21.4245 27.8294 21.9913 27.5342 22.5048C27.2389 23.0182 26.8452 23.4684 26.3756 23.8294C25.9059 24.1903 25.3697 24.455 24.7975 24.6083C24.2254 24.7616 23.6286 24.8004 23.0414 24.7225C22.4542 24.6446 21.8882 24.4516 21.3758 24.1544C20.8634 23.8573 20.4147 23.4619 20.0554 22.991C19.6961 22.5201 19.4334 21.9829 19.2822 21.4102C18.5791 18.7777 18.2331 16.0664 18.0742 13.7616L25.3038 11.9531Z" fill="url(#paint1_linear_173_1458)"/>
<path d="M17.9989 7.875L22.4989 6.75C22.4989 6.75 26.2226 12.5648 27.9692 19.0842C28.1245 19.6558 28.1655 20.2524 28.0897 20.8399C28.014 21.4274 27.823 21.9941 27.5277 22.5076C27.2325 23.0211 26.8387 23.4712 26.3691 23.8322C25.8995 24.1931 25.3632 24.4579 24.7911 24.6111C24.2189 24.7644 23.6221 24.8032 23.0349 24.7253C22.4478 24.6474 21.8817 24.4544 21.3693 24.1572C20.8569 23.8601 20.4082 23.4647 20.049 22.9938C19.6897 22.5229 19.4269 21.9857 19.2757 21.413C17.5292 14.8936 17.9989 7.875 17.9989 7.875Z" stroke="url(#paint2_linear_173_1458)" stroke-width="2" stroke-linecap="round" stroke-linejoin="round"/>
<path d="M24.7891 24.5952L26.8084 32.1285" stroke="url(#paint3_linear_173_1458)" stroke-width="2" stroke-linecap="round" stroke-linejoin="round"/>
<path d="M30.375 31.1724L23.625 32.9808" stroke="url(#paint4_linear_173_1458)" stroke-width="2" stroke-linecap="round" stroke-linejoin="round"/>
<path d="M17.9989 4.5L13.4989 3.375C13.4989 3.375 9.77517 9.18984 8.0286 15.7092C7.87326 16.2808 7.83229 16.8774 7.90805 17.4649C7.9838 18.0524 8.17479 18.6191 8.47006 19.1326C8.76532 19.6461 9.15906 20.0962 9.62868 20.4572C10.0983 20.8181 10.6346 21.0829 11.2067 21.2361C11.7789 21.3894 12.3756 21.4282 12.9628 21.3503C13.55 21.2724 14.116 21.0794 14.6284 20.7822C15.1408 20.4851 15.5896 20.0897 15.9488 19.6188C16.3081 19.1479 16.5709 18.6107 16.722 18.038C18.3209 11.5031 17.9989 4.5 17.9989 4.5Z" stroke="url(#paint5_linear_173_1458)" stroke-width="2" stroke-linecap="round" stroke-linejoin="round"/>
<path d="M11.2108 21.2202L9.19141 28.7535" stroke="url(#paint6_linear_173_1458)" stroke-width="2" stroke-linecap="round" stroke-linejoin="round"/>
<path d="M5.625 27.7974L12.375 29.6058" stroke="url(#paint7_linear_173_1458)" stroke-width="2" stroke-linecap="round" stroke-linejoin="round"/>
<path d="M18.0703 13.7644L25.3055 11.9531" stroke="url(#paint8_linear_173_1458)" stroke-width="2" stroke-linecap="round" stroke-linejoin="round"/>
<path d="M17.847 10.6494L10.5781 8.83252" stroke="url(#paint9_linear_173_1458)" stroke-width="2" stroke-linecap="round" stroke-linejoin="round"/>
<path d="M27 5.625L29.25 4.5" stroke="url(#paint10_linear_173_1458)" stroke-width="2" stroke-linecap="round" stroke-linejoin="round"/>
<path d="M29.25 10.125H31.5" stroke="url(#paint11_linear_173_1458)" stroke-width="2" stroke-linecap="round" stroke-linejoin="round"/>
<path d="M7.875 4.5L5.625 3.375" stroke="url(#paint12_linear_173_1458)" stroke-width="2" stroke-linecap="round" stroke-linejoin="round"/>
<path d="M5.625 9H3.375" stroke="url(#paint13_linear_173_1458)" stroke-width="2" stroke-linecap="round" stroke-linejoin="round"/>
</g>
<defs>
<linearGradient id="paint0_linear_173_1458" x1="9.4824" y1="21.3418" x2="19.0841" y2="16.0429" gradientUnits="userSpaceOnUse">
<stop stop-color="#AD6FFF"/>
<stop offset="0.51" stop-color="#FD98E8"/>
<stop offset="1" stop-color="#FF7385"/>
</linearGradient>
<linearGradient id="paint1_linear_173_1458" x1="19.6989" y1="24.7132" x2="29.4324" y2="19.4033" gradientUnits="userSpaceOnUse">
<stop stop-color="#AD6FFF"/>
<stop offset="0.51" stop-color="#FD98E8"/>
<stop offset="1" stop-color="#FF7385"/>
</linearGradient>
<linearGradient id="paint2_linear_173_1458" x1="19.5865" y1="24.6963" x2="30.6663" y2="20.3448" gradientUnits="userSpaceOnUse">
<stop stop-color="#AD6FFF"/>
<stop offset="0.51" stop-color="#FD98E8"/>
<stop offset="1" stop-color="#FF7385"/>
</linearGradient>
<linearGradient id="paint3_linear_173_1458" x1="25.1152" y1="32.1" x2="27.5658" y2="31.6437" gradientUnits="userSpaceOnUse">
<stop stop-color="#AD6FFF"/>
<stop offset="0.51" stop-color="#FD98E8"/>
<stop offset="1" stop-color="#FF7385"/>
</linearGradient>
<linearGradient id="paint4_linear_173_1458" x1="24.7153" y1="32.974" x2="25.8128" y2="30.1284" gradientUnits="userSpaceOnUse">
<stop stop-color="#AD6FFF"/>
<stop offset="0.51" stop-color="#FD98E8"/>
<stop offset="1" stop-color="#FF7385"/>
</linearGradient>
<linearGradient id="paint5_linear_173_1458" x1="9.51122" y1="21.3213" x2="20.5663" y2="16.9927" gradientUnits="userSpaceOnUse">
<stop stop-color="#AD6FFF"/>
<stop offset="0.51" stop-color="#FD98E8"/>
<stop offset="1" stop-color="#FF7385"/>
</linearGradient>
<linearGradient id="paint6_linear_173_1458" x1="9.51757" y1="28.725" x2="11.9682" y2="28.2687" gradientUnits="userSpaceOnUse">
<stop stop-color="#AD6FFF"/>
<stop offset="0.51" stop-color="#FD98E8"/>
<stop offset="1" stop-color="#FF7385"/>
</linearGradient>
<linearGradient id="paint7_linear_173_1458" x1="6.71526" y1="29.599" x2="7.8128" y2="26.7534" gradientUnits="userSpaceOnUse">
<stop stop-color="#AD6FFF"/>
<stop offset="0.51" stop-color="#FD98E8"/>
<stop offset="1" stop-color="#FF7385"/>
</linearGradient>
<linearGradient id="paint8_linear_173_1458" x1="19.2389" y1="13.7575" x2="20.2832" y2="10.8599" gradientUnits="userSpaceOnUse">
<stop stop-color="#AD6FFF"/>
<stop offset="0.51" stop-color="#FD98E8"/>
<stop offset="1" stop-color="#FF7385"/>
</linearGradient>
<linearGradient id="paint9_linear_173_1458" x1="11.7522" y1="10.6425" x2="12.7985" y2="7.73484" gradientUnits="userSpaceOnUse">
<stop stop-color="#AD6FFF"/>
<stop offset="0.51" stop-color="#FD98E8"/>
<stop offset="1" stop-color="#FF7385"/>
</linearGradient>
<linearGradient id="paint10_linear_173_1458" x1="27.3634" y1="5.62075" x2="28.3276" y2="4.28123" gradientUnits="userSpaceOnUse">
<stop stop-color="#AD6FFF"/>
<stop offset="0.51" stop-color="#FD98E8"/>
<stop offset="1" stop-color="#FF7385"/>
</linearGradient>
<linearGradient id="paint11_linear_173_1458" x1="29.6134" y1="11.1212" x2="30.434" y2="9.83867" gradientUnits="userSpaceOnUse">
<stop stop-color="#AD6FFF"/>
<stop offset="0.51" stop-color="#FD98E8"/>
<stop offset="1" stop-color="#FF7385"/>
</linearGradient>
<linearGradient id="paint12_linear_173_1458" x1="5.98842" y1="4.49575" x2="6.95261" y2="3.15623" gradientUnits="userSpaceOnUse">
<stop stop-color="#AD6FFF"/>
<stop offset="0.51" stop-color="#FD98E8"/>
<stop offset="1" stop-color="#FF7385"/>
</linearGradient>
<linearGradient id="paint13_linear_173_1458" x1="3.73842" y1="9.99622" x2="4.55903" y2="8.71367" gradientUnits="userSpaceOnUse">
<stop stop-color="#AD6FFF"/>
<stop offset="0.51" stop-color="#FD98E8"/>
<stop offset="1" stop-color="#FF7385"/>
</linearGradient>
<clipPath id="clip0_173_1458">
<rect width="36" height="36" fill="white"/>
</clipPath>
</defs>
</svg>
