<svg width="36" height="36" viewBox="0 0 36 36" fill="none" xmlns="http://www.w3.org/2000/svg">
<g clip-path="url(#clip0_173_1393)">
<path opacity="0.2" d="M27 5.625H9C7.13604 5.625 5.625 7.13604 5.625 9V27C5.625 28.864 7.13604 30.375 9 30.375H27C28.864 30.375 30.375 28.864 30.375 27V9C30.375 7.13604 28.864 5.625 27 5.625Z" fill="white"/>
<path d="M27 5.625H9C7.13604 5.625 5.625 7.13604 5.625 9V27C5.625 28.864 7.13604 30.375 9 30.375H27C28.864 30.375 30.375 28.864 30.375 27V9C30.375 7.13604 28.864 5.625 27 5.625Z" stroke="white" stroke-width="2" stroke-linecap="round" stroke-linejoin="round"/>
<path d="M12.9375 14.625C13.8695 14.625 14.625 13.8695 14.625 12.9375C14.625 12.0055 13.8695 11.25 12.9375 11.25C12.0055 11.25 11.25 12.0055 11.25 12.9375C11.25 13.8695 12.0055 14.625 12.9375 14.625Z" fill="white"/>
<path d="M23.0625 14.625C23.9945 14.625 24.75 13.8695 24.75 12.9375C24.75 12.0055 23.9945 11.25 23.0625 11.25C22.1305 11.25 21.375 12.0055 21.375 12.9375C21.375 13.8695 22.1305 14.625 23.0625 14.625Z" fill="white"/>
<path d="M12.9375 24.75C13.8695 24.75 14.625 23.9945 14.625 23.0625C14.625 22.1305 13.8695 21.375 12.9375 21.375C12.0055 21.375 11.25 22.1305 11.25 23.0625C11.25 23.9945 12.0055 24.75 12.9375 24.75Z" fill="white"/>
<path d="M18 19.6875C18.932 19.6875 19.6875 18.932 19.6875 18C19.6875 17.068 18.932 16.3125 18 16.3125C17.068 16.3125 16.3125 17.068 16.3125 18C16.3125 18.932 17.068 19.6875 18 19.6875Z" fill="white"/>
<path d="M23.0625 24.75C23.9945 24.75 24.75 23.9945 24.75 23.0625C24.75 22.1305 23.9945 21.375 23.0625 21.375C22.1305 21.375 21.375 22.1305 21.375 23.0625C21.375 23.9945 22.1305 24.75 23.0625 24.75Z" fill="white"/>
</g>
<defs>
<clipPath id="clip0_173_1393">
<rect width="36" height="36" fill="white"/>
</clipPath>
</defs>
</svg>
