<svg width="30" height="30" viewBox="0 0 30 30" fill="none" xmlns="http://www.w3.org/2000/svg">
<g clip-path="url(#clip0_173_1493)">
<path opacity="0.2" d="M24.375 10.3125H5.625C5.10723 10.3125 4.6875 10.7322 4.6875 11.25V24.375C4.6875 24.8928 5.10723 25.3125 5.625 25.3125H24.375C24.8928 25.3125 25.3125 24.8928 25.3125 24.375V11.25C25.3125 10.7322 24.8928 10.3125 24.375 10.3125Z" fill="url(#paint0_linear_173_1493)"/>
<path d="M24.375 10.3125H5.625C5.10723 10.3125 4.6875 10.7322 4.6875 11.25V24.375C4.6875 24.8928 5.10723 25.3125 5.625 25.3125H24.375C24.8928 25.3125 25.3125 24.8928 25.3125 24.375V11.25C25.3125 10.7322 24.8928 10.3125 24.375 10.3125Z" stroke="url(#paint1_linear_173_1493)" stroke-width="2" stroke-linecap="round" stroke-linejoin="round"/>
<path d="M15 19.2188C15.7767 19.2188 16.4062 18.5892 16.4062 17.8125C16.4062 17.0358 15.7767 16.4062 15 16.4062C14.2233 16.4062 13.5938 17.0358 13.5938 17.8125C13.5938 18.5892 14.2233 19.2188 15 19.2188Z" fill="url(#paint2_linear_173_1493)"/>
<path d="M10.3125 10.3125V6.5625C10.3125 5.3193 10.8064 4.12701 11.6854 3.24794C12.5645 2.36886 13.7568 1.875 15 1.875C16.2432 1.875 17.4355 2.36886 18.3146 3.24794C19.1936 4.12701 19.6875 5.3193 19.6875 6.5625V10.3125" stroke="url(#paint3_linear_173_1493)" stroke-width="2" stroke-linecap="round" stroke-linejoin="round"/>
</g>
<defs>
<linearGradient id="paint0_linear_173_1493" x1="8.01884" y1="25.2558" x2="21.5615" y2="12.3209" gradientUnits="userSpaceOnUse">
<stop stop-color="#AD6FFF"/>
<stop offset="0.51" stop-color="#FD98E8"/>
<stop offset="1" stop-color="#FF7385"/>
</linearGradient>
<linearGradient id="paint1_linear_173_1493" x1="8.01884" y1="25.2558" x2="21.5615" y2="12.3209" gradientUnits="userSpaceOnUse">
<stop stop-color="#AD6FFF"/>
<stop offset="0.51" stop-color="#FD98E8"/>
<stop offset="1" stop-color="#FF7385"/>
</linearGradient>
<linearGradient id="paint2_linear_173_1493" x1="14.048" y1="19.2081" x2="16.4301" y2="17.5535" gradientUnits="userSpaceOnUse">
<stop stop-color="#AD6FFF"/>
<stop offset="0.51" stop-color="#FD98E8"/>
<stop offset="1" stop-color="#FF7385"/>
</linearGradient>
<linearGradient id="paint3_linear_173_1493" x1="11.8267" y1="10.2806" x2="19.2037" y2="4.58698" gradientUnits="userSpaceOnUse">
<stop stop-color="#AD6FFF"/>
<stop offset="0.51" stop-color="#FD98E8"/>
<stop offset="1" stop-color="#FF7385"/>
</linearGradient>
<clipPath id="clip0_173_1493">
<rect width="30" height="30" fill="white"/>
</clipPath>
</defs>
</svg>
