<svg width="36" height="36" viewBox="0 0 36 36" fill="none" xmlns="http://www.w3.org/2000/svg">
<g clip-path="url(#clip0_173_1372)">
<path opacity="0.2" d="M12.375 29.25V13.5H5.625C5.32663 13.5 5.04048 13.6185 4.82951 13.8295C4.61853 14.0405 4.5 14.3266 4.5 14.625V29.25H12.375Z" fill="white"/>
<path opacity="0.2" d="M23.625 29.25V19.125H30.375C30.6734 19.125 30.9595 19.2435 31.1705 19.4545C31.3815 19.6655 31.5 19.9516 31.5 20.25V29.25H23.625Z" fill="white"/>
<path d="M4.5 29.25V14.625C4.5 14.3266 4.61853 14.0405 4.82951 13.8295C5.04048 13.6185 5.32663 13.5 5.625 13.5H12.375" stroke="white" stroke-width="2" stroke-linecap="round" stroke-linejoin="round"/>
<path d="M12.375 29.25V7.875C12.375 7.57663 12.4935 7.29048 12.7045 7.07951C12.9155 6.86853 13.2016 6.75 13.5 6.75H22.5C22.7984 6.75 23.0845 6.86853 23.2955 7.07951C23.5065 7.29048 23.625 7.57663 23.625 7.875V29.25" stroke="white" stroke-width="2" stroke-linecap="round" stroke-linejoin="round"/>
<path d="M31.5 29.25V20.25C31.5 19.9516 31.3815 19.6655 31.1705 19.4545C30.9595 19.2435 30.6734 19.125 30.375 19.125H23.625" stroke="white" stroke-width="2" stroke-linecap="round" stroke-linejoin="round"/>
<path d="M16.875 14.0625L18.5625 13.5V19.125" stroke="white" stroke-width="2" stroke-linecap="round" stroke-linejoin="round"/>
<path d="M2.25 29.25H33.75" stroke="white" stroke-width="2" stroke-linecap="round" stroke-linejoin="round"/>
</g>
<defs>
<clipPath id="clip0_173_1372">
<rect width="36" height="36" fill="white"/>
</clipPath>
</defs>
</svg>
