<svg width="36" height="36" viewBox="0 0 36 36" fill="none" xmlns="http://www.w3.org/2000/svg">
<g clip-path="url(#clip0_173_1449)">
<path opacity="0.2" d="M3.375 23.625C3.375 26.1098 6.1875 27 7.875 27C9.5625 27 12.375 26.1098 12.375 23.625L7.875 12.375L3.375 23.625Z" fill="url(#paint0_linear_173_1449)"/>
<path opacity="0.2" d="M23.625 19.125C23.625 21.6098 26.4375 22.5 28.125 22.5C29.8125 22.5 32.625 21.6098 32.625 19.125L28.125 7.875L23.625 19.125Z" fill="url(#paint1_linear_173_1449)"/>
<path d="M18 5.625V30.375" stroke="url(#paint2_linear_173_1449)" stroke-width="2" stroke-linecap="round" stroke-linejoin="round"/>
<path d="M14.625 30.375H21.375" stroke="url(#paint3_linear_173_1449)" stroke-width="2" stroke-linecap="round" stroke-linejoin="round"/>
<path d="M7.875 12.375L28.125 7.875" stroke="url(#paint4_linear_173_1449)" stroke-width="2" stroke-linecap="round" stroke-linejoin="round"/>
<path d="M3.375 23.625C3.375 26.1098 6.1875 27 7.875 27C9.5625 27 12.375 26.1098 12.375 23.625L7.875 12.375L3.375 23.625Z" stroke="url(#paint5_linear_173_1449)" stroke-width="2" stroke-linecap="round" stroke-linejoin="round"/>
<path d="M23.625 19.125C23.625 21.6098 26.4375 22.5 28.125 22.5C29.8125 22.5 32.625 21.6098 32.625 19.125L28.125 7.875L23.625 19.125Z" stroke="url(#paint6_linear_173_1449)" stroke-width="2" stroke-linecap="round" stroke-linejoin="round"/>
</g>
<defs>
<linearGradient id="paint0_linear_173_1449" x1="4.82867" y1="26.9447" x2="14.3833" y2="22.8604" gradientUnits="userSpaceOnUse">
<stop stop-color="#AD6FFF"/>
<stop offset="0.51" stop-color="#FD98E8"/>
<stop offset="1" stop-color="#FF7385"/>
</linearGradient>
<linearGradient id="paint1_linear_173_1449" x1="25.0787" y1="22.4447" x2="34.6333" y2="18.3604" gradientUnits="userSpaceOnUse">
<stop stop-color="#AD6FFF"/>
<stop offset="0.51" stop-color="#FD98E8"/>
<stop offset="1" stop-color="#FF7385"/>
</linearGradient>
<linearGradient id="paint2_linear_173_1449" x1="18.1615" y1="30.2815" x2="19.4161" y2="30.2463" gradientUnits="userSpaceOnUse">
<stop stop-color="#AD6FFF"/>
<stop offset="0.51" stop-color="#FD98E8"/>
<stop offset="1" stop-color="#FF7385"/>
</linearGradient>
<linearGradient id="paint3_linear_173_1449" x1="15.7153" y1="31.3712" x2="16.084" y2="29.6423" gradientUnits="userSpaceOnUse">
<stop stop-color="#AD6FFF"/>
<stop offset="0.51" stop-color="#FD98E8"/>
<stop offset="1" stop-color="#FF7385"/>
</linearGradient>
<linearGradient id="paint4_linear_173_1449" x1="11.1458" y1="12.358" x2="13.5064" y2="4.97901" gradientUnits="userSpaceOnUse">
<stop stop-color="#AD6FFF"/>
<stop offset="0.51" stop-color="#FD98E8"/>
<stop offset="1" stop-color="#FF7385"/>
</linearGradient>
<linearGradient id="paint5_linear_173_1449" x1="4.82867" y1="26.9447" x2="14.3833" y2="22.8604" gradientUnits="userSpaceOnUse">
<stop stop-color="#AD6FFF"/>
<stop offset="0.51" stop-color="#FD98E8"/>
<stop offset="1" stop-color="#FF7385"/>
</linearGradient>
<linearGradient id="paint6_linear_173_1449" x1="25.0787" y1="22.4447" x2="34.6333" y2="18.3604" gradientUnits="userSpaceOnUse">
<stop stop-color="#AD6FFF"/>
<stop offset="0.51" stop-color="#FD98E8"/>
<stop offset="1" stop-color="#FF7385"/>
</linearGradient>
<clipPath id="clip0_173_1449">
<rect width="36" height="36" fill="white"/>
</clipPath>
</defs>
</svg>
