<svg width="36" height="36" viewBox="0 0 36 36" fill="none" xmlns="http://www.w3.org/2000/svg">
<g clip-path="url(#clip0_173_1386)">
<path opacity="0.2" d="M5.625 5.625C6.52011 5.625 7.37855 5.98058 8.01149 6.61351C8.64442 7.24645 9 8.10489 9 9V27C9 27.8951 9.35558 28.7536 9.98851 29.3865C10.6214 30.0194 11.4799 30.375 12.375 30.375C13.2701 30.375 14.1286 30.0194 14.7615 29.3865C15.3944 28.7536 15.75 27.8951 15.75 27C15.75 25.5938 14.625 24.75 14.625 24.75H28.125V9C28.125 8.10489 27.7694 7.24645 27.1365 6.61351C26.5036 5.98058 25.6451 5.625 24.75 5.625H5.625Z" fill="white"/>
<path d="M28.125 24.75V9C28.125 8.10489 27.7694 7.24645 27.1365 6.61351C26.5036 5.98058 25.6451 5.625 24.75 5.625H5.625" stroke="white" stroke-width="2" stroke-linecap="round" stroke-linejoin="round"/>
<path d="M14.625 14.625H23.625" stroke="white" stroke-width="2" stroke-linecap="round" stroke-linejoin="round"/>
<path d="M14.625 19.125H23.625" stroke="white" stroke-width="2" stroke-linecap="round" stroke-linejoin="round"/>
<path d="M3.375 11.25C3.375 11.25 2.25 10.4062 2.25 9C2.25 8.10489 2.60558 7.24645 3.23851 6.61351C3.87145 5.98058 4.72989 5.625 5.625 5.625C6.52011 5.625 7.37855 5.98058 8.01149 6.61351C8.64442 7.24645 9 8.10489 9 9V27C9 27.8951 9.35558 28.7536 9.98851 29.3865C10.6214 30.0194 11.4799 30.375 12.375 30.375M12.375 30.375C13.2701 30.375 14.1286 30.0194 14.7615 29.3865C15.3944 28.7536 15.75 27.8951 15.75 27C15.75 25.5938 14.625 24.75 14.625 24.75H30.375C30.375 24.75 31.5 25.5938 31.5 27C31.5 27.8951 31.1444 28.7536 30.5115 29.3865C29.8786 30.0194 29.0201 30.375 28.125 30.375H12.375Z" stroke="white" stroke-width="2" stroke-linecap="round" stroke-linejoin="round"/>
</g>
<defs>
<clipPath id="clip0_173_1386">
<rect width="36" height="36" fill="white"/>
</clipPath>
</defs>
</svg>
