<svg width="36" height="36" viewBox="0 0 36 36" fill="none" xmlns="http://www.w3.org/2000/svg">
<g clip-path="url(#clip0_173_1381)">
<path opacity="0.2" d="M4.5 14.625H11.25V29.25H4.5C4.20163 29.25 3.91548 29.1315 3.7045 28.9205C3.49353 28.7095 3.375 28.4234 3.375 28.125V15.75C3.375 15.4516 3.49353 15.1655 3.7045 14.9545C3.91548 14.7435 4.20163 14.625 4.5 14.625Z" fill="white"/>
<path d="M4.5 14.625H11.25V29.25H4.5C4.20163 29.25 3.91548 29.1315 3.7045 28.9205C3.49353 28.7095 3.375 28.4234 3.375 28.125V15.75C3.375 15.4516 3.49353 15.1655 3.7045 14.9545C3.91548 14.7435 4.20163 14.625 4.5 14.625Z" stroke="white" stroke-width="2" stroke-linecap="round" stroke-linejoin="round"/>
<path d="M11.25 14.625L16.875 3.375C18.0685 3.375 19.2131 3.84911 20.057 4.69302C20.9009 5.53693 21.375 6.68153 21.375 7.875V11.25H30.375C30.6942 11.2501 31.0097 11.3181 31.3005 11.4495C31.5914 11.5808 31.851 11.7726 32.0621 12.012C32.2732 12.2514 32.4309 12.533 32.5248 12.838C32.6187 13.1431 32.6466 13.4646 32.6067 13.7812L30.9192 27.2812C30.8507 27.8249 30.5862 28.3248 30.1753 28.6873C29.7645 29.0498 29.2354 29.2498 28.6875 29.25H11.25" stroke="white" stroke-width="2" stroke-linecap="round" stroke-linejoin="round"/>
</g>
<defs>
<clipPath id="clip0_173_1381">
<rect width="36" height="36" fill="white"/>
</clipPath>
</defs>
</svg>
