<svg width="36" height="36" viewBox="0 0 36 36" fill="none" xmlns="http://www.w3.org/2000/svg">
<path d="M28.125 21.375L22.5 27L13.5 24.75L5.625 19.125" stroke="url(#paint0_linear_41_4305)" stroke-width="2" stroke-linecap="round" stroke-linejoin="round"/>
<path d="M10.2207 9.93234L18.0001 7.875L25.7795 9.93234" stroke="url(#paint1_linear_41_4305)" stroke-width="2" stroke-linecap="round" stroke-linejoin="round"/>
<path d="M4.83329 8.4964L1.24454 15.6767C1.11117 15.9434 1.08913 16.2521 1.18327 16.5351C1.2774 16.818 1.48001 17.052 1.74658 17.1856L5.62501 19.1248L10.2206 9.93219L6.34361 7.99437C6.21148 7.92811 6.0676 7.88854 5.92018 7.87791C5.77275 7.86728 5.62468 7.88581 5.48442 7.93243C5.34416 7.97906 5.21447 8.05286 5.10274 8.14963C4.99102 8.2464 4.89946 8.36424 4.83329 8.4964Z" fill="url(#paint2_linear_41_4305)" fill-opacity="0.2" stroke="url(#paint3_linear_41_4305)" stroke-width="2" stroke-linecap="round" stroke-linejoin="round"/>
<path d="M30.3749 19.1248L34.2534 17.1856C34.5199 17.052 34.7225 16.818 34.8167 16.5351C34.9108 16.2521 34.8888 15.9434 34.7554 15.6767L31.1666 8.4964C31.1005 8.36424 31.0089 8.2464 30.8972 8.14963C30.7855 8.05286 30.6558 7.97906 30.5155 7.93243C30.3753 7.88581 30.2272 7.86728 30.0798 7.87791C29.9323 7.88854 29.7884 7.92811 29.6563 7.99437L25.7793 9.93219L30.3749 19.1248Z" fill="url(#paint4_linear_41_4305)" fill-opacity="0.2" stroke="url(#paint5_linear_41_4305)" stroke-width="2" stroke-linecap="round" stroke-linejoin="round"/>
<path d="M25.8749 10.125H20.2499L13.829 16.3533C13.7096 16.4726 13.6186 16.6172 13.5627 16.7765C13.5069 16.9357 13.4875 17.1055 13.5061 17.2732C13.5248 17.4409 13.5809 17.6023 13.6704 17.7454C13.7599 17.8885 13.8804 18.0097 14.023 18.0998C16.4854 19.6734 19.828 19.5652 22.4999 16.875L28.1249 21.375L30.3749 19.125" stroke="url(#paint6_linear_41_4305)" stroke-width="2" stroke-linecap="round" stroke-linejoin="round"/>
<path d="M17.4459 30.375L11.5791 28.9083L7.875 26.2617" stroke="url(#paint7_linear_41_4305)" stroke-width="2" stroke-linecap="round" stroke-linejoin="round"/>
<defs>
<linearGradient id="paint0_linear_41_4305" x1="9.25919" y1="26.9702" x2="14.9794" y2="15.6176" gradientUnits="userSpaceOnUse">
<stop stop-color="#AD6FFF"/>
<stop offset="0.51" stop-color="#FD98E8"/>
<stop offset="1" stop-color="#FF7385"/>
</linearGradient>
<linearGradient id="paint1_linear_41_4305" x1="12.7337" y1="9.92457" x2="13.4169" y2="6.33577" gradientUnits="userSpaceOnUse">
<stop stop-color="#AD6FFF"/>
<stop offset="0.51" stop-color="#FD98E8"/>
<stop offset="1" stop-color="#FF7385"/>
</linearGradient>
<linearGradient id="paint2_linear_41_4305" x1="2.59474" y1="19.0823" x2="11.2765" y2="14.2069" gradientUnits="userSpaceOnUse">
<stop stop-color="#AD6FFF"/>
<stop offset="0.51" stop-color="#FD98E8"/>
<stop offset="1" stop-color="#FF7385"/>
</linearGradient>
<linearGradient id="paint3_linear_41_4305" x1="2.59474" y1="19.0823" x2="11.2765" y2="14.2069" gradientUnits="userSpaceOnUse">
<stop stop-color="#AD6FFF"/>
<stop offset="0.51" stop-color="#FD98E8"/>
<stop offset="1" stop-color="#FF7385"/>
</linearGradient>
<linearGradient id="paint4_linear_41_4305" x1="27.2483" y1="19.0823" x2="35.9301" y2="14.2069" gradientUnits="userSpaceOnUse">
<stop stop-color="#AD6FFF"/>
<stop offset="0.51" stop-color="#FD98E8"/>
<stop offset="1" stop-color="#FF7385"/>
</linearGradient>
<linearGradient id="paint5_linear_41_4305" x1="27.2483" y1="19.0823" x2="35.9301" y2="14.2069" gradientUnits="userSpaceOnUse">
<stop stop-color="#AD6FFF"/>
<stop offset="0.51" stop-color="#FD98E8"/>
<stop offset="1" stop-color="#FF7385"/>
</linearGradient>
<linearGradient id="paint6_linear_41_4305" x1="16.225" y1="21.3325" x2="26.3842" y2="10.7468" gradientUnits="userSpaceOnUse">
<stop stop-color="#AD6FFF"/>
<stop offset="0.51" stop-color="#FD98E8"/>
<stop offset="1" stop-color="#FF7385"/>
</linearGradient>
<linearGradient id="paint7_linear_41_4305" x1="9.42089" y1="30.3595" x2="12.7476" y2="24.9825" gradientUnits="userSpaceOnUse">
<stop stop-color="#AD6FFF"/>
<stop offset="0.51" stop-color="#FD98E8"/>
<stop offset="1" stop-color="#FF7385"/>
</linearGradient>
</defs>
</svg>
