<svg width="16" height="16" viewBox="0 0 16 16" fill="none" xmlns="http://www.w3.org/2000/svg">
<mask id="mask0_41_3877" style="mask-type:alpha" maskUnits="userSpaceOnUse" x="0" y="0" width="16" height="16">
<rect width="16" height="16" fill="#D9D9D9"/>
</mask>
<g mask="url(#mask0_41_3877)">
<path d="M2.66667 12.6666C2.47778 12.6666 2.31944 12.6027 2.19167 12.4749C2.06389 12.3471 2 12.1888 2 11.9999C2 11.811 2.06389 11.6527 2.19167 11.5249C2.31944 11.3971 2.47778 11.3333 2.66667 11.3333H13.3333C13.5222 11.3333 13.6806 11.3971 13.8083 11.5249C13.9361 11.6527 14 11.811 14 11.9999C14 12.1888 13.9361 12.3471 13.8083 12.4749C13.6806 12.6027 13.5222 12.6666 13.3333 12.6666H2.66667ZM2.66667 8.66658C2.47778 8.66658 2.31944 8.6027 2.19167 8.47492C2.06389 8.34714 2 8.18881 2 7.99992C2 7.81103 2.06389 7.6527 2.19167 7.52492C2.31944 7.39714 2.47778 7.33325 2.66667 7.33325H13.3333C13.5222 7.33325 13.6806 7.39714 13.8083 7.52492C13.9361 7.6527 14 7.81103 14 7.99992C14 8.18881 13.9361 8.34714 13.8083 8.47492C13.6806 8.6027 13.5222 8.66658 13.3333 8.66658H2.66667ZM2.66667 4.66659C2.47778 4.66659 2.31944 4.6027 2.19167 4.47492C2.06389 4.34714 2 4.18881 2 3.99992C2 3.81103 2.06389 3.6527 2.19167 3.52492C2.31944 3.39714 2.47778 3.33325 2.66667 3.33325H13.3333C13.5222 3.33325 13.6806 3.39714 13.8083 3.52492C13.9361 3.6527 14 3.81103 14 3.99992C14 4.18881 13.9361 4.34714 13.8083 4.47492C13.6806 4.6027 13.5222 4.66659 13.3333 4.66659H2.66667Z" fill="black"/>
</g>
</svg>
