<svg width="164" height="38" viewBox="0 0 164 38" fill="none" xmlns="http://www.w3.org/2000/svg">
<g clip-path="url(#clip0_41_3854)">
<path d="M66.824 30.26L61.521 21.3776H57.5803V30.26H51.1602V3.22168H63.292C65.967 3.22168 68.2408 4.12304 70.1133 5.92575C71.9859 7.72846 72.9221 9.91746 72.9221 12.4928C72.9221 14.1405 72.4466 15.6666 71.4979 17.0687C70.5493 18.4732 69.2984 19.5605 67.7479 20.3331L73.7246 30.26H66.824ZM57.5778 9.01611V15.9694H63.292C64.1737 15.9694 64.9292 15.6356 65.5583 14.9655C66.1875 14.2955 66.502 13.4728 66.502 12.4928C66.502 11.5127 66.1875 10.6901 65.5583 10.02C64.9292 9.34994 64.1737 9.01611 63.292 9.01611H57.5778Z" fill="#110044"/>
<path d="M90.0919 10.9476H96.1107V30.26H90.0919V28.4453C88.6751 30.0167 86.6812 30.8013 84.1151 30.8013C81.5491 30.8013 79.2059 29.8164 77.3359 27.8468C75.4634 25.8772 74.5271 23.464 74.5271 20.605C74.5271 17.7459 75.4634 15.3328 77.3359 13.3631C79.2084 11.3935 81.4674 10.4087 84.1151 10.4087C86.7629 10.4087 88.6751 11.1956 90.0919 12.7646V10.95V10.9476ZM81.8686 24.0411C82.7504 24.89 83.9021 25.3144 85.3189 25.3144C86.7357 25.3144 87.8875 24.89 88.7692 24.0411C89.651 23.1922 90.0919 22.0452 90.0919 20.6026C90.0919 19.1599 89.651 18.0154 88.7692 17.1641C87.8875 16.3128 86.7357 15.8884 85.3189 15.8884C83.9021 15.8884 82.7504 16.3128 81.8686 17.1641C80.9868 18.0154 80.5435 19.1599 80.5435 20.6026C80.5435 22.0452 80.9844 23.1898 81.8686 24.0411Z" fill="#110044"/>
<path d="M122.789 7.85713C120.302 7.65206 119.059 8.55342 119.059 10.5612V10.9475H122.789V16.5082H119.059V30.2575H113.04V16.5082H107.823V30.2575H101.805V16.5082H99.1172V10.9475H101.805C101.805 8.16712 102.62 6.04965 104.252 4.5927C105.884 3.13813 108.316 2.50146 111.554 2.6803V8.24104C109.067 8.03597 107.823 8.93733 107.823 10.9451H113.04V10.5588C113.04 7.77844 113.855 5.66097 115.487 4.20402C117.119 2.74945 119.552 2.11278 122.789 2.29162V7.85236V7.85713Z" fill="#110044"/>
<path d="M134.787 30.2599V2.06274H140.806V30.2575H134.787V30.2599Z" fill="#110044"/>
<path d="M125.871 30.2599V10.9475H131.89V30.2599H125.871Z" fill="#110044"/>
<path d="M157.58 10.9475H164L157.139 29.6804C156.015 32.7183 154.539 34.8954 152.706 36.2069C150.873 37.5207 148.54 38.1121 145.704 37.9833V32.5752C147.093 32.5752 148.163 32.3368 148.914 31.8599C149.662 31.3829 150.264 30.5531 150.719 29.368L142.736 10.9451H149.357L153.811 22.7652L157.583 10.9451L157.58 10.9475Z" fill="#110044"/>
<path d="M128.88 8.45326C130.825 8.45326 132.402 6.93514 132.402 5.06244C132.402 3.18975 130.825 1.67163 128.88 1.67163C126.934 1.67163 125.357 3.18975 125.357 5.06244C125.357 6.93514 126.934 8.45326 128.88 8.45326Z" fill="#110044"/>
<path d="M17.6374 12.4924C16.9588 12.4924 16.2702 12.3875 15.5915 12.1658C13.9741 11.6388 12.6663 10.5371 11.9109 9.0611C11.1554 7.58745 11.039 5.91828 11.5864 4.36117C12.7183 1.1492 16.3519 -0.581975 19.6933 0.507759C23.0321 1.59511 24.8279 5.09561 23.6984 8.30997C22.7968 10.8733 20.3026 12.4924 17.6374 12.4924Z" fill="url(#paint0_linear_41_3854)"/>
<path d="M37.2326 7.03916L34.2034 0L20.3947 21.406L7.83936 11.9847L7.50003 19.5937L0 21.5991L6.84365 26.8261C15.7679 33.6411 28.8657 31.4449 34.8746 22.1309L44.9927 6.44302L37.2302 7.04154L37.2326 7.03916Z" fill="url(#paint1_linear_41_3854)"/>
</g>
<defs>
<linearGradient id="paint0_linear_41_3854" x1="-0.196181" y1="23.1132" x2="27.6384" y2="-5.1306" gradientUnits="userSpaceOnUse">
<stop stop-color="#AD6FFF"/>
<stop offset="0.51" stop-color="#FD98E8"/>
<stop offset="1" stop-color="#FF7385"/>
</linearGradient>
<linearGradient id="paint1_linear_41_3854" x1="7.2672" y1="30.6842" x2="35.1018" y2="2.44046" gradientUnits="userSpaceOnUse">
<stop stop-color="#AD6FFF"/>
<stop offset="0.51" stop-color="#FD98E8"/>
<stop offset="1" stop-color="#FF7385"/>
</linearGradient>
<clipPath id="clip0_41_3854">
<rect width="164" height="38" fill="white"/>
</clipPath>
</defs>
</svg>
