<svg width="24" height="8" viewBox="0 0 24 8" fill="none" xmlns="http://www.w3.org/2000/svg">
<path d="M10.3992 7.88484H8.45508L9.6711 0.140625H11.6152L10.3992 7.88484Z" fill="#00579F"/>
<path d="M17.4472 0.329702C17.0637 0.173009 16.4555 0 15.7034 0C13.7835 0 12.4315 1.05448 12.4232 2.56206C12.4073 3.67435 13.3912 4.29214 14.1271 4.66302C14.8793 5.04199 15.135 5.28935 15.135 5.62716C15.1273 6.14596 14.5272 6.38511 13.9674 6.38511C13.1912 6.38511 12.7753 6.26181 12.1433 5.97318L11.8873 5.84944L11.6152 7.58785C12.0712 7.80181 12.9113 7.99168 13.7835 8C15.8235 8 17.1515 6.96184 17.1673 5.35527C17.175 4.47369 16.6555 3.79819 15.5354 3.24621C14.8554 2.89187 14.4389 2.65294 14.4389 2.29039C14.4469 1.9608 14.7912 1.62321 15.5587 1.62321C16.1908 1.60668 16.6552 1.76315 17.007 1.91974L17.1828 2.00197L17.4472 0.329702Z" fill="#00579F"/>
<path d="M20.0314 5.14134C20.1915 4.69644 20.8076 2.97457 20.8076 2.97457C20.7995 2.9911 20.9674 2.52146 21.0634 2.23315L21.1992 2.90044C21.1992 2.90044 21.5674 4.75415 21.6474 5.14134C21.3435 5.14134 20.4154 5.14134 20.0314 5.14134ZM22.4312 0.140625H20.9274C20.4637 0.140625 20.1113 0.280565 19.9113 0.783166L17.0234 7.88473H19.0634C19.0634 7.88473 19.3992 6.92891 19.4714 6.72305C19.6952 6.72305 21.6797 6.72305 21.9676 6.72305C22.0234 6.99494 22.1996 7.88473 22.1996 7.88473H23.9997L22.4312 0.140625Z" fill="#00579F"/>
<path d="M6.83123 0.140625L4.92725 5.42144L4.71919 4.35043C4.36719 3.11462 3.26322 1.77194 2.03125 1.10433L3.77523 7.87662H5.83113L8.88703 0.140625H6.83123Z" fill="#00579F"/>
<path d="M3.15998 0.140381H0.0320004L0 0.296855C2.44002 0.939505 4.05599 2.48859 4.71993 4.35051L4.03994 0.791353C3.92799 0.296745 3.58396 0.156696 3.15998 0.140381Z" fill="#00579F"/>
</svg>
