<svg width="110" height="48" viewBox="0 0 110 48" fill="none" xmlns="http://www.w3.org/2000/svg">
<path fill-rule="evenodd" clip-rule="evenodd" d="M17.9427 0.243754H18.0073L18.072 0.259922L18.1205 0.276087L18.1696 0.324591L18.2181 0.373714L18.2505 0.438383L18.299 0.519841L18.3151 0.6013L18.3475 0.715092L18.3637 0.812718L18.3798 0.942054L18.396 1.08818L18.4122 1.23431V1.75353L18.6229 25.8676L24.7124 25.4939L24.8424 2.61412L25.7191 0.243754L28.4471 0L29.0807 1.12052L29.1945 25.1208L33.3028 24.8771L39.5216 24.6333L42.3795 24.8771L43.1263 25.4939V26.3707L42.6226 27.2319L40.6415 28.3518L40.5116 28.4985L40.2025 28.8555L39.748 29.3753L39.212 30.0239L38.6436 30.6905L38.1244 31.339L37.8807 31.6474L37.686 31.9073L37.5237 32.1517L37.3938 32.3302L37.3129 32.5242L37.1991 32.7356L37.0854 32.9955L36.956 33.2884L36.7123 33.8897L36.4691 34.5227L36.2577 35.1066L36.0793 35.6109L35.9499 35.9349L35.917 36.0648L35.9008 36.0978V36.1792L35.8685 36.2762L35.8523 36.4062V36.7302L35.8685 36.7955L35.8846 36.844L35.917 36.8769L35.9499 36.8925L35.9822 36.9093H36.0307L36.0954 36.8763L36.1601 36.8433L36.2415 36.7787L36.3224 36.6972L36.4362 36.5828L36.55 36.4528L36.6799 36.3073L36.826 36.1121L36.9883 35.9019L37.1506 35.6575L37.3453 35.3647L37.5567 35.0562L37.7843 34.6993L38.2227 33.9855L38.6125 33.3201L38.9701 32.735L39.2947 32.1834L39.5708 31.6966L39.8145 31.2582L40.0253 30.8683L40.2038 30.5269L40.3499 30.234L40.4799 29.9909L40.5775 29.7957L40.6428 29.634L40.7074 29.504L40.7398 29.4226L40.7559 29.3741V29.3411L40.8697 29.2596L41.1782 29.0644L41.3728 28.9512L41.6004 28.8213L41.7142 28.7728L41.828 28.7075L41.9579 28.6428L42.0873 28.5943L42.2172 28.5613L42.331 28.5128L42.461 28.4973L42.5748 28.4643H42.8023L42.9161 28.4799L43.0138 28.5128L43.1114 28.5613L43.2084 28.6098L43.2737 28.6913L43.3384 28.7728L43.403 28.8859L43.4521 29.0159L43.4845 29.1788L43.5006 29.3417L43.533 29.7316L43.5653 30.1047L43.6138 30.4946L43.6629 30.8845L43.7276 31.2743L43.7929 31.6474L43.8576 32.0056L43.9229 32.3296L44.0367 32.9309L44.1504 33.401L44.2151 33.7094L44.2475 33.8238V33.8723L44.2804 34.019L44.3289 34.2292L44.4104 34.4891L44.4427 34.6359L44.4912 34.7814L44.5403 34.9269L44.5895 35.0736L44.6541 35.2192L44.7188 35.3491L44.8002 35.4791L44.8649 35.5935L44.9464 35.7067L45.0272 35.7881L45.1087 35.8528L45.2063 35.9025L45.3033 35.9181H45.4009L45.4979 35.8851L45.6117 35.8204L45.7255 35.7222L45.8393 35.5767L45.9531 35.3982L46.0831 35.1868L46.1968 34.9269L46.343 34.6029L46.4729 34.246L46.6191 33.8232L46.8784 32.9794L47.1221 32.2151L47.3497 31.5168L47.5443 30.9L47.7228 30.3484L47.9019 29.8616L48.0312 29.4387L48.1612 29.0644L48.275 28.7572L48.3558 28.4973L48.4373 28.2859L48.5019 28.123L48.5504 27.993L48.5666 27.9115L48.5828 27.863H48.5989L48.2252 26.3694L46.2279 23.5116V23.3654L46.2441 23.2193L46.2603 23.0079L46.2926 22.8941L46.3088 22.7803L46.3411 22.6503L46.3735 22.5204L46.4226 22.3743L46.4711 22.2449L46.5357 22.0988L46.6172 21.9688L46.6819 21.8389L46.7795 21.6927L46.8765 21.5628L46.9903 21.449L47.1203 21.319L47.2664 21.2214L47.4287 21.1238L47.6071 21.0429L47.7862 20.9621L47.9809 20.8974L48.2084 20.8483L48.4522 20.8321L48.6959 20.816H48.972L49.2804 20.8483L49.5889 20.8974L49.8973 20.9621L50.1895 21.0268L50.4333 21.1238L50.6609 21.2214L50.8555 21.319L51.0178 21.4328L51.1639 21.5466L51.2939 21.6766L51.3909 21.8065L51.4724 21.9527L51.537 22.0826L51.6017 22.2288L51.6179 22.3749L51.6502 22.521V22.7971L51.6179 22.9432L51.6017 23.0893L51.5694 23.2193L51.5202 23.3493L51.4879 23.4792L51.4394 23.593L51.3903 23.7068L51.3418 23.8206L51.2442 23.9991L51.1633 24.129L51.0986 24.2105L51.0825 24.259V24.3081L51.1148 24.4542L51.131 24.568L51.1639 24.6818L51.2286 24.8279L51.2933 24.9902L51.3418 25.0717L51.3903 25.1525L51.4394 25.234L51.5041 25.3148L51.5694 25.3957L51.6502 25.4933L51.7317 25.5748L51.8125 25.6718L51.9101 25.7532L52.0239 25.8502L52.1215 25.9317L52.2515 26.0287L52.3815 26.1101L52.5108 26.1916L52.6731 26.2731L52.8192 26.3701L53.4852 26.694L54.1344 27.0354L54.4434 27.2139L54.7518 27.3923L55.0279 27.5552L55.304 27.7337L55.4172 27.8307L55.5316 27.9122L55.6448 27.9936L55.743 28.0906L55.8232 28.1721L55.9215 28.2535L55.9861 28.335L56.0514 28.432L56.1161 28.5135L56.1646 28.5949L56.1976 28.6919L56.2131 28.7734L56.2299 28.8548V28.9363L56.2131 29.0165L56.1814 29.098L56.1484 29.195L56.1155 29.3094L56.0825 29.4394L56.067 29.6023L56.034 29.7652L56.0185 29.9592L56.0029 30.1532L55.9861 30.3646L55.9532 30.8198L55.9376 31.2899L55.9221 31.7942V32.2811L55.9053 32.7679V33.6777L55.9221 34.0508V34.6191L55.9376 34.7658V34.8461L55.9706 34.9114L56.0035 35.0084L56.0682 35.1228L56.1012 35.1874L56.1341 35.2359L56.1826 35.3012L56.2311 35.3659L56.2796 35.4144L56.3281 35.4797L56.3766 35.5126L56.4419 35.5444L56.5066 35.5773L56.5719 35.5941L56.6366 35.6096L56.718 35.5941L56.7995 35.5773L56.8641 35.5288L56.9456 35.4803L57.0271 35.3989L57.1241 35.3019L57.2055 35.1874L57.3025 35.0419L57.3995 34.879L57.4978 34.685L57.5948 34.4736L57.6918 34.2292L57.8062 33.9538L58.0002 33.3854L58.1954 32.8326L58.3739 32.3296L58.5356 31.8427L58.6985 31.3875L58.844 30.9659L58.974 30.576L59.0884 30.2347L59.1854 29.9262L59.2824 29.6508L59.3638 29.4064L59.4291 29.2124L59.4776 29.0495L59.5106 28.9363L59.5261 28.871L59.5417 28.8555L59.5585 28.774L59.5902 28.5788L59.607 28.4332L59.6225 28.2703L59.6393 28.0919V27.8805L59.6225 27.7835L59.607 27.6703L59.5902 27.5559L59.5746 27.4427L59.5417 27.3283L59.5261 27.2139L59.4776 27.0839L59.4291 26.9707L59.3806 26.8408L59.3153 26.7108L59.2668 26.5964L59.1854 26.4664L59.0884 26.3533L59.0069 26.2389L58.9099 26.1089L58.7955 25.9951L58.6823 25.8651L58.5679 25.7358L58.4709 25.5891L58.3895 25.4429L58.2925 25.2806L58.2272 25.1183L58.1457 24.9399L58.081 24.7608L58.0158 24.5823L57.9672 24.4039L57.9355 24.2092L57.8858 24.0308L57.8541 23.8361L57.8211 23.6415L57.8056 23.4631L57.7888 23.2684L57.7732 23.09L57.7577 22.9115V22.5714L57.7732 22.4091L57.7888 22.263L57.8056 22.1168L57.8373 21.9869L57.8541 21.8731L57.8858 21.7593L57.9355 21.6623L57.9672 21.5808L58.0158 21.4994L58.0655 21.4509L58.114 21.4185L58.1787 21.3856L58.2272 21.3694L58.3086 21.3532L58.3901 21.3047L58.4871 21.2724L58.6985 21.1586L58.9255 21.0448L59.0554 20.9801L59.1854 20.9316L59.3309 20.8825L59.4776 20.8178L59.6231 20.7855L59.7699 20.7364L59.9154 20.7202L60.0609 20.6879H60.3693L60.5148 20.7041L60.6778 20.7364L60.8245 20.7855L60.97 20.8502L61.1155 20.9478L61.2455 21.0616L61.3754 21.1916L61.5054 21.3539L61.6354 21.5329L61.7498 21.7437L61.8629 21.9875L61.9773 22.2474L62.0588 22.5558L62.1403 22.8804L62.2373 23.2218L62.3019 23.5302L62.3834 23.8225L62.4649 24.0986L62.5295 24.3423L62.611 24.5699L62.6763 24.7807L62.7577 24.9753L62.8379 25.1538L62.9032 25.2999L62.9847 25.446L63.0494 25.576L63.1308 25.6892L63.2123 25.8036L63.2937 25.885L63.3752 25.982L63.4722 26.0473L63.5537 26.112L63.6507 26.1773L63.7321 26.242L63.8291 26.2749L63.9435 26.3234L64.0405 26.3719L64.1705 26.4049L64.3975 26.4695L64.6574 26.551L64.9503 26.6325L65.2587 26.7469L65.4204 26.7954L65.5671 26.8768L65.7126 26.9415L65.8581 27.023L65.9881 27.12L66.118 27.217L66.2325 27.3152L66.3624 27.4284L66.4594 27.5428L66.5564 27.656L66.6547 27.7859L66.7517 27.9159L66.8331 28.0626L66.8978 28.1926L66.9631 28.3381L67.0278 28.501L67.093 28.6465L67.1415 28.825L67.1733 28.9879L67.2062 29.1496L67.2392 29.328L67.2721 29.5078V29.6862L67.2877 29.8647V30.2539L67.2721 30.4479L67.2553 30.6432L67.2398 30.8372L67.2068 31.0486L67.1739 31.26L67.1254 31.4702L67.0769 31.6816L67.0439 31.926L66.9954 32.1859L66.9637 32.4614L66.9308 32.7369L66.9152 33.0297L66.8984 33.3382L66.8829 33.6466V33.9394L66.8661 34.2311L66.8829 34.524L66.8984 34.7994L66.9152 35.0761L66.9469 35.3361L66.9799 35.5792L67.0284 35.7906L67.0937 35.9691L67.1583 36.1475L67.2236 36.2775L67.3206 36.3745L67.4176 36.4398L67.5321 36.4715L67.6608 36.4559L67.7907 36.3913L67.9375 36.293L68.1004 36.1314L68.2621 35.9199L68.4573 35.66L68.6675 35.3186L68.8789 34.9288L69.1233 34.4748L69.3664 33.955L69.6108 33.4022L69.8539 32.8668L70.0653 32.3638L70.2768 31.8769L70.6511 30.9672L70.9751 30.1389L71.2835 29.3759L71.5764 28.6932L71.7219 28.3692L71.8674 28.0763L71.9973 27.7835L72.1441 27.5235L72.2896 27.2636L72.4351 27.0205L72.598 26.7935L72.7435 26.5821L72.9064 26.3868L73.0849 26.2084L73.2801 26.0299L73.4741 25.8676L73.6856 25.7215L73.897 25.5922L74.1401 25.4622L74.3845 25.3484L74.66 25.2508L74.9528 25.1532L75.2457 25.0723L75.5697 24.9909L75.911 24.9424L76.235 24.8932H76.8519L77.1447 24.9094L77.4364 24.9417L77.7131 25.0064L77.9885 25.0717L78.2485 25.1525L78.5084 25.2663L78.7528 25.364L78.9959 25.4939L79.2229 25.6077L79.4498 25.7538L79.678 25.8838L79.8882 26.0467L80.0835 26.1922L80.2949 26.3551L80.4889 26.5006L80.6841 26.6636L81.0572 26.9875L81.3986 27.2959L81.577 27.4427L81.74 27.5714L81.9016 27.7014L82.0646 27.8313L82.2101 27.9613L82.373 28.0595L82.5197 28.1565L82.6652 28.2212L82.8107 28.3027L82.9737 28.3512L83.1521 28.3841L83.315 28.4171L83.4935 28.4326H83.8504L84.0444 28.3997L84.2397 28.3841L84.4337 28.3356L84.6289 28.3027L84.8229 28.238L85.0182 28.1727L85.2122 28.108L85.4236 28.0427L85.6176 27.9613L85.8129 27.8643L86.0069 27.7828L86.1854 27.6858L86.3806 27.5888L86.5591 27.4918L86.7375 27.3936L86.8992 27.2804L87.0789 27.1834L87.2244 27.069L87.3873 26.972L87.5328 26.8576L87.6628 26.7606L87.7927 26.6636L87.9059 26.5653L88.0042 26.4521L88.1012 26.3707L88.2143 26.2737L88.3126 26.1922L88.4425 26.1108L88.5881 26.0293L88.751 25.9478L88.9127 25.8832L89.0911 25.8017L89.2864 25.737L89.4648 25.6718L89.6762 25.6071L89.8877 25.558L90.0978 25.4933L90.5207 25.3957L90.9591 25.2819L91.3819 25.2004L91.8035 25.1196L92.1934 25.0381L92.5503 24.9735L92.8755 24.892L93.1354 24.8435L93.2486 24.8112L93.3468 24.7788L93.4115 24.7627L93.4768 24.7303L93.5253 24.6489L93.557 24.4866L93.6068 24.2428L93.6223 23.9021L93.6553 23.5122L93.687 23.0415V22.5055L93.7038 21.9371L93.7355 20.622V17.6341L93.7199 16.0423L93.7044 14.4672L93.6876 12.9407L93.672 11.5117L93.6391 10.2612L93.6235 9.18985L93.608 8.37775V7.71179V7.72795L93.6235 7.74412H93.7205L93.7858 7.72795L93.866 7.71179L93.9643 7.67945L94.0613 7.64712L94.1745 7.598L94.4188 7.50099L94.6632 7.3872L94.8902 7.28957L95.1016 7.20812L95.2471 7.22428L95.41 7.25662L95.5717 7.27278L95.7346 7.28895L95.8801 7.30512L96.0101 7.32129L96.14 7.33745H96.303L96.4 7.30512L96.4485 7.28895H96.5784L96.6269 7.32129L96.6599 7.33745L96.7084 7.37041L96.7413 7.40274L96.7743 7.4357L96.806 7.46804L96.839 7.51716L96.8719 7.58183L96.9049 7.64712L96.9695 7.80941L97.051 7.98787L97.1163 8.23163L97.181 8.50771L97.2139 8.7353L97.2624 9.10901L97.2954 9.62885L97.3271 10.2619L97.36 11.0255L97.393 11.8861L97.4247 12.8443L97.4577 13.8995L97.5062 16.2214L97.5547 18.7547L97.6044 21.4502L97.6529 24.1943L97.6846 26.9229L97.7176 29.5693L97.7331 32.0211L97.7499 34.2292L97.7655 36.0816L97.7499 37.5099V38.0453L97.7331 38.452V38.7119L97.7176 38.7921L97.5391 38.9718L97.2792 39.2317L96.9876 39.5234L96.7109 39.7833L93.7392 39.9133L93.2361 36.3086H93.2032L93.1062 36.2756L93.0409 36.2601H92.7648L92.6516 36.2918L92.5372 36.3403L92.4887 36.3571L92.4234 36.39L92.3588 36.4385L92.2941 36.4702L92.2288 36.52L92.1641 36.5685L92.0988 36.6332L92.0174 36.6985L91.9527 36.7799L91.8874 36.8601L91.806 36.9584L91.7413 37.0554L91.6598 37.1686L91.5784 37.283L91.4814 37.3974L91.367 37.5261L91.14 37.786L90.8645 38.0627L90.5717 38.3382L90.2788 38.6137L89.9716 38.8904L89.6619 39.1503L89.078 39.6533L88.5912 40.0432L88.2672 40.3187L88.1372 40.4169H88.0875L87.9258 40.4325L87.8288 40.4169H87.7144L87.5844 40.4001L87.4389 40.3846L87.2922 40.3516L87.1467 40.3187L86.9838 40.2702L86.8221 40.2055L86.7568 40.1726L86.6753 40.1396L86.5939 40.0911L86.5292 40.0426L86.4639 39.9773L86.3993 39.9288L86.3346 39.8641L86.2693 39.7827L86.2208 39.718L86.1555 39.6198L86.107 39.5395L86.0423 39.4251L85.9938 39.2952L85.9285 39.1652L85.88 39.0352L85.8154 38.8897L85.7171 38.5813L85.6201 38.2561L85.5387 37.9147L85.4572 37.5746L85.377 37.2332L85.3117 36.9093L85.247 36.584L85.2141 36.2912L85.1656 36.0157L85.15 35.7887V35.4474L85.1817 35.1389L85.2302 34.7491L85.2632 34.2622L85.3117 33.7423L85.3602 33.174L85.4255 32.6057L85.474 32.0541L85.5387 31.5498L85.5555 31.3558L85.5872 31.1444L85.6201 30.9504L85.6531 30.7551L85.686 30.5611L85.7345 30.3659L85.7501 30.1719L85.7669 29.9766H85.4255L85.247 29.9934L85.0686 30.0089L84.8901 30.0419L84.7104 30.0736L84.5487 30.1234L84.3703 30.188L84.2074 30.2365L84.0289 30.3018L83.866 30.3833L83.7043 30.4635L83.5414 30.5449L83.3666 30.6419L83.2037 30.739L83.0408 30.836L82.9761 30.9006L82.8947 30.9989L82.8462 31.112L82.7977 31.242L82.7647 31.4049L82.7162 31.5678L82.7007 31.7618L82.6677 31.9571L82.6348 32.411L82.6018 32.8979L82.5863 33.4333L82.5707 33.9861L82.5539 34.2616L82.5222 34.537L82.5054 34.8137L82.4725 35.1054L82.4408 35.3653L82.3923 35.642L82.3425 35.9175L82.294 36.1774L82.2293 36.4205L82.1479 36.6487L82.0664 36.8918L81.952 37.1033L81.855 37.2973L81.7251 37.4925L81.5796 37.6542L81.434 37.8009L81.0927 38.0938L80.7675 38.3693L80.4435 38.6609L80.1021 38.9376L79.9236 39.0676L79.7452 39.1975L79.5823 39.3107L79.4038 39.4407L79.2098 39.5389L79.0139 39.6533L78.8199 39.7503L78.6259 39.8318L78.4145 39.8971L78.2192 39.9618L77.9923 40.0103L77.7809 40.0432L77.5539 40.0762L77.3269 40.0917H77.0826L76.8226 40.0588L76.5795 40.0271L76.304 39.9618L76.0441 39.8971L75.7512 39.7988L75.4758 39.7018L75.1674 39.5563L74.8589 39.4108L74.5505 39.2324L74.2253 39.0527L73.9498 38.8587L73.6744 38.6634L73.4145 38.4849L73.1862 38.3065L72.9593 38.1125L72.7653 37.9496L72.57 37.7711L72.2299 37.4627L71.937 37.1698L71.8071 37.0398L71.6771 36.9267L71.5627 36.8297L71.4495 36.7314L71.3351 36.6512L71.2219 36.5859L71.1075 36.5374L71.0105 36.5219L70.8961 36.5051H70.7991L70.6847 36.538L70.5715 36.571L70.4571 36.6524L70.3271 36.7327L70.1816 36.8471L70.0517 36.9926L69.8887 37.1555L69.7271 37.334L69.5486 37.5609L69.3689 37.8053L69.1587 38.0652L68.9635 38.2922L68.7695 38.5191L68.5581 38.7306L68.3628 38.9246L68.1688 39.1043L67.9574 39.2498L67.746 39.3953L67.5358 39.5252L67.3405 39.6397L67.1291 39.7528L66.9351 39.8343L66.7237 39.8996L66.5297 39.9481L66.3344 39.9798L66.1404 39.9966L65.9452 40.0121L65.7512 39.9966L65.5559 39.9636L65.3774 39.9151L65.199 39.8666L65.0205 39.7852L64.8576 39.6882L64.6959 39.5737L64.5175 39.4606L64.3707 39.3138L64.2252 39.1522L64.0797 38.9737L63.933 38.794L63.803 38.5838L63.6898 38.3556L63.5754 38.1125L63.4622 37.8526L63.3808 37.5771L63.2993 37.2519L63.234 36.9279L63.1855 36.5865L63.137 36.2122L63.1215 35.8391L63.1047 35.4492L63.0892 35.0438V34.2317L63.1047 33.8101L63.1215 33.3873L63.137 32.9644L63.17 32.5428L63.203 32.1374L63.2676 31.3247L63.3491 30.5617L63.4144 29.8466L63.479 29.2136L63.4946 28.9382L63.5114 28.6938L63.5269 28.4507L63.5425 28.2554V28.0925L63.5269 27.9625V27.8487L63.494 27.7835L63.4622 27.7517L63.4138 27.7188L63.3808 27.6858L63.3155 27.6529L63.267 27.6212L63.2185 27.5882L63.1538 27.5714L63.0885 27.5397L62.943 27.5067L62.7963 27.4738L62.6346 27.4582H62.3262L62.1633 27.4738L62.0178 27.4906L61.8878 27.5223L61.8225 27.5391L61.774 27.5708L61.7255 27.5876L61.677 27.6031L61.6285 27.6361L61.5956 27.669L61.5626 27.7008L61.5296 27.7337L61.5141 27.7822L61.4986 27.8475L61.4656 27.929L61.4326 28.0421L61.3841 28.302L61.3195 28.6273L61.238 29.0003L61.1566 29.4232L61.0751 29.8771L60.9936 30.364L60.8966 30.8353L60.7822 31.3384L60.669 31.8265L60.5546 32.2966L60.5061 32.5236L60.4415 32.735L60.3762 32.9464L60.3115 33.1578L60.2462 33.3363L60.1815 33.5147L60.1162 33.6777L60.0348 33.8232L59.8893 34.1316L59.7108 34.4885L59.4994 34.9114L59.288 35.3497L59.0449 35.8211L58.8005 36.308L58.5406 36.7948L58.2806 37.2817L58.0207 37.7531L57.762 38.1914L57.6321 38.4029L57.5021 38.5969L57.3722 38.7909L57.2578 38.9706L57.1433 39.1323L57.0302 39.279L56.9158 39.409L56.8187 39.5389L56.7043 39.6191L56.6073 39.7006L56.5103 39.7491L56.4289 39.7821L56.2349 39.8467L55.9905 39.9282L55.6976 40.0096L55.3575 40.0911L55.1784 40.1396L54.9999 40.1726L54.8215 40.1881L54.6268 40.2049L54.4484 40.2204H54.2376L54.0591 40.2049L53.8614 40.1732L53.6668 40.1402L53.4877 40.0755L53.3092 40.0103L53.1307 39.9133L52.9684 39.8162L52.8062 39.6863L52.66 39.5234L52.5301 39.3449L52.4001 39.1509L52.2863 38.9227L52.1887 38.6628L52.1079 38.3873L52.0426 38.0633L51.9941 37.722L51.9617 37.3476L51.9456 36.9422L51.9617 36.0984V35.3186L51.9779 34.5718L51.9941 33.8735L52.0102 33.2405L52.0264 32.6237L52.0426 32.0709V31.5678L52.0587 31.0965V29.9436L52.0426 29.6352L52.0264 29.3753L52.0102 29.2609L51.9941 29.1639L51.9779 29.0656L51.9456 28.9854L51.9132 28.807L51.8486 28.6285L51.7839 28.45L51.6863 28.2703L51.6539 28.1901L51.5893 28.1087L51.5408 28.0272L51.4916 27.9619L51.427 27.8972L51.3778 27.832L51.3132 27.7673L51.2485 27.7188L51.1838 27.6858L51.1192 27.6529L51.0545 27.6373L50.9737 27.6218H50.909L50.8275 27.6373L50.7467 27.6529L50.6659 27.7014L50.5844 27.7511L50.5029 27.8313L50.4221 27.9128L50.3245 28.0098L50.2436 28.1242L50.146 28.2697L50.0652 28.4326L49.9676 28.5955L49.8699 28.807L49.7723 29.0339L49.6747 29.3094L49.5771 29.6023L49.3663 30.2521L49.1387 30.9989L48.8949 31.7942L48.635 32.6542L48.4889 33.0925L48.3427 33.5309L48.1966 33.9693L48.0343 34.4077L47.8559 34.8629L47.6936 35.3012L47.5151 35.7228L47.3205 36.1457L47.1097 36.5511L46.9151 36.9578L46.6875 37.3308L46.4605 37.6878L46.2329 38.0291L45.9736 38.3531L45.7137 38.646L45.4538 38.9215L45.1615 39.1497L44.8693 39.3598L44.5609 39.5395L44.2524 39.6683L43.944 39.7665L43.6517 39.815H43.3713L43.1276 39.7665L42.9 39.7012L42.6892 39.5713L42.4945 39.4413L42.3161 39.2628L42.1538 39.0688L42.0077 38.8574L41.8777 38.613L41.7477 38.3531L41.634 38.0944L41.5363 37.8177L41.4387 37.5249L41.3572 37.2494L41.2764 36.9578L41.2111 36.6649L41.1464 36.3894L41.0812 36.1127L41.0165 35.8528L40.9674 35.6096L40.9027 35.3827L40.838 35.1713L40.7895 34.9928L40.7242 34.8299L40.6596 34.7155L40.5949 34.6185L40.5141 34.5538L40.4326 34.537L40.3511 34.57L40.2541 34.6353L40.0595 34.8293L39.8649 35.0233L39.6864 35.2185L39.5403 35.4125L39.3942 35.6078L39.248 35.8018L39.1342 35.9803L39.0204 36.1587L38.8258 36.4839L38.6629 36.7768L38.5329 37.0199L38.4359 37.1829L38.3713 37.2799L38.2575 37.3943L38.1275 37.5559L37.9329 37.7344L37.7383 37.9297L37.4945 38.1411L37.2346 38.3512L36.9747 38.5795L36.6986 38.7896L36.4225 39.001L36.1464 39.1963L35.8703 39.3748L35.7404 39.4562L35.6104 39.5209L35.4804 39.5862L35.3666 39.6508L35.2529 39.6993L35.1391 39.7323L35.0414 39.7653L34.9438 39.7808H34.8462L34.7324 39.7653L34.6348 39.7485L34.521 39.7L34.391 39.6353L34.2772 39.57L34.1479 39.473L34.0179 39.376L33.9041 39.2616L33.7742 39.1484L33.6448 39.0017L33.5149 38.8562L33.4011 38.6932L33.2717 38.5303L33.1579 38.3363L33.0442 38.1579L32.9465 37.9464L32.8489 37.735L32.7513 37.5236L32.6704 37.2966L32.6058 37.0697L32.5411 36.8265L32.4926 36.5666L32.4596 36.3067L32.4273 36.0468L32.4111 35.7869V35.5114L32.4435 35.2185L32.4758 34.9431L32.5243 34.6664L32.589 34.3747L32.6704 34.0663L32.8812 33.498L33.0597 32.9613L33.2388 32.4583L33.4172 31.9869L33.5795 31.5486L33.7257 31.1431L33.8718 30.7862L34.0018 30.461L34.1317 30.1855L34.2287 29.9256L34.3263 29.7142L34.391 29.5357L34.4557 29.4058L34.5042 29.3088L34.5365 29.2441L34.5527 29.2273L34.5689 29.1459L34.6012 28.9189L34.6335 28.7734L34.6497 28.5949V28.4165L34.6335 28.3195L34.6174 28.2212L34.6012 28.1398L34.585 28.0427L34.5539 27.9619L34.5216 27.8649L34.4725 27.7835L34.424 27.702L34.3593 27.6218L34.2778 27.5403L34.197 27.475L34.1162 27.4265L34.0024 27.3619L33.8886 27.3134L33.7586 27.2804L33.6125 27.2636L33.4664 27.2481L33.3041 27.2325H32.9465L32.589 27.2481L32.2321 27.2636L31.8907 27.2966L31.5499 27.3295L31.2253 27.3451L30.9007 27.3936L30.6085 27.4265L30.0887 27.4918L29.6826 27.5565L29.4227 27.5894L29.3257 27.605L29.1957 30.5928L29.0819 46.8801L28.2052 47.6269L25.9641 48L24.7137 47.14L24.4699 28.1093L18.511 28.3524L18.3811 29.6035L18.511 45.8895V46.0848L18.5272 46.2788V46.4573L18.511 46.6357V46.7986L18.4949 46.9442L18.4625 47.0909L18.4302 47.2209L18.3979 47.334L18.3487 47.4484L18.3326 47.4969L18.3002 47.5299L18.2679 47.5784L18.2349 47.6114L18.2026 47.6431L18.1703 47.676L18.1211 47.6916L18.0726 47.7084L18.0403 47.7413H17.9912L17.9427 47.7569H17.878L13.6559 48H13.5421L13.4283 47.9845L13.3307 47.9689L13.233 47.936L13.1354 47.903L13.0546 47.8545L12.9899 47.7898L12.9252 47.7245L12.8767 47.6599L12.8121 47.5784L12.7791 47.4814L12.7306 47.367L12.6983 47.27L12.6821 47.1556L12.6659 47.0256V46.8801L12.5366 28.986L0.357666 30.4629V28.2218L12.7797 26.9881V6.21942L12.8444 1.49423L12.8773 1.31577L12.9097 1.13669L12.9259 1.03968L12.9582 0.958222L12.9744 0.877387L13.0067 0.795929L13.039 0.715092L13.0881 0.650423L13.1366 0.568964L13.169 0.504295L13.2181 0.439004L13.2828 0.374335L13.3481 0.309666L13.4127 0.244997H17.9427V0.243754ZM92.7524 28.45L92.6709 28.4656L92.5739 28.5141L92.4769 28.5626L92.3787 28.644L92.2655 28.7411L92.1355 28.8381L92.0211 28.968L91.8912 29.098L91.7612 29.2447L91.6312 29.4064L91.5013 29.5693L91.3558 29.7478L91.2258 29.9262L91.0803 30.1215L90.9336 30.3155L90.788 30.5269L90.5126 30.9653L90.2359 31.4037L89.9604 31.8421L89.7173 32.296L89.6029 32.5074L89.4729 32.7344L89.3759 32.9458L89.2776 33.1572L89.1806 33.3512L89.0992 33.5465L89.019 33.7405L88.9537 33.9357L88.889 34.1142L88.8237 34.2771L88.7752 34.4556L88.7267 34.634L88.6782 34.8125L88.6453 34.9909L88.6123 35.1694L88.5638 35.3479L88.5321 35.6718L88.4823 35.997L88.4668 36.1426V36.2881L88.4513 36.4348V36.7103L88.4668 36.8247V36.9546L88.4823 37.0516L88.4991 37.1648L88.5147 37.2463L88.5315 37.3277L88.5632 37.4092L88.5961 37.4739L88.6291 37.5224L88.6621 37.5721L88.6938 37.6038L88.7423 37.6368H88.8237L88.8722 37.6212L88.9207 37.5883L88.986 37.5553L89.0507 37.5224L89.1321 37.4739L89.2951 37.3439L89.4735 37.1984L89.6675 37.0355L89.8628 36.8415L90.0742 36.6475L90.3012 36.4193L90.5126 36.1923L90.7066 35.9653L90.9018 35.7384L91.0803 35.494L91.1618 35.3808L91.242 35.2664L91.3073 35.1694L91.3719 35.055L91.4372 34.9418L91.4857 34.8436L91.5342 34.7466L91.5672 34.6496L91.7289 34.1956L91.9403 33.6105L92.1847 32.9607L92.4446 32.2792L92.6877 31.6449L92.8829 31.0934L92.9644 30.8664L93.0291 30.6712L93.0776 30.5412L93.0944 30.4598L93.1261 30.2813L93.1746 30.0058L93.1914 29.8429L93.2243 29.6644L93.2399 29.486L93.2554 29.292V29.1135L93.2399 28.9351L93.2243 28.8536L93.2075 28.7883L93.192 28.7236L93.159 28.6584L93.1261 28.5937L93.0944 28.5452L93.0446 28.5122L92.9961 28.4637L92.9476 28.4482L92.8829 28.4314H92.8344L92.7524 28.45ZM74.8409 30.4952L74.8254 30.6096L74.7924 30.8036L74.7769 31.0803L74.7601 31.4043L74.7445 31.7942L74.729 32.2326L74.7122 32.6865V34.116L74.7451 34.5544L74.7607 34.9599L74.7936 35.1539L74.8092 35.3336L74.826 35.4791L74.8589 35.642L74.8906 35.7552L74.9236 35.8696L74.9566 35.951L75.0051 36.0312L75.1991 36.308L75.4919 36.6978L75.5734 36.7948L75.6549 36.9093L75.7519 37.0063L75.8489 37.1033L75.9459 37.2003L76.0603 37.2973L76.1747 37.3955L76.3047 37.4757L76.4346 37.5572L76.5646 37.6386L76.7101 37.6871L76.873 37.7356L77.0185 37.7841L77.1814 37.8009L77.3599 37.8165H77.5383L77.7168 37.8009L77.9108 37.768L78.1222 37.7195L78.3337 37.6542L78.5451 37.5572L78.772 37.4602L79.0139 37.3315L79.2583 37.1686L79.4853 36.9901L79.7122 36.8284L79.9075 36.6655L80.0859 36.5026L80.2488 36.3397L80.3944 36.178L80.5243 35.9995L80.6375 35.8366L80.7357 35.6737L80.8172 35.5282L80.8819 35.3653L80.9465 35.2198L80.9963 35.0569L81.028 34.9114L81.0448 34.7658L81.0603 34.6191L81.0759 34.4736V34.2137L81.0603 34.0837L81.0448 33.8393L80.9963 33.5962L80.9465 33.401L80.9148 33.2069L80.8663 33.044L80.8495 32.8985V32.7686L80.8663 32.6542V32.541L80.8819 32.4266L80.8974 32.3134L80.9142 32.2151V32.1181L80.8974 32.0367L80.8819 31.9882L80.8663 31.9397L80.8495 31.9067L80.834 31.875L80.801 31.8265L80.7681 31.7936L80.7364 31.7606L80.6879 31.7276L80.6381 31.6959L80.5734 31.663L80.5088 31.6462L80.4435 31.6145L80.3465 31.5815L80.265 31.566L80.168 31.5492L80.0536 31.5162L79.8105 31.4845L79.5338 31.436L79.2421 31.3707L78.9337 31.306L78.2995 31.1431L77.6497 30.9802L77.0328 30.8185L76.4974 30.6718L76.092 30.5748L75.8321 30.4933L75.6692 30.4448L75.5237 30.4119L75.3607 30.3634L75.2308 30.3478L75.1661 30.331H75.1008L75.0361 30.3478L74.9876 30.3634L74.9379 30.3802L74.9062 30.4119L74.8732 30.4448L74.8409 30.4952ZM77.6186 26.875L77.5371 26.9067L77.4389 26.9235L77.3742 26.9552L77.2927 27.0049L77.2113 27.0534L77.1628 27.1019L77.0981 27.1666L77.0328 27.2319L77.0011 27.2966L76.9513 27.378L76.9028 27.4595L76.8873 27.5409L76.8543 27.6224L76.8388 27.7026L76.822 27.8009V28.0919L76.8388 28.1733L76.8718 28.2703L76.8873 28.3686L76.9203 28.4656L76.9688 28.5626L77.0173 28.6596L77.0819 28.7411L77.1472 28.8381L77.2119 28.9195L77.2934 29.001L77.3748 29.0656L77.4718 29.1471L77.5862 29.2124L77.6994 29.2771L77.9276 29.407L78.1546 29.5053L78.366 29.6184L78.5762 29.6999L78.7714 29.7814L78.9654 29.8628L79.1439 29.9113L79.3236 29.9598L79.3883 29.9754H79.4697L79.5512 29.9921H79.7458L79.8273 29.9754H79.8758L79.9411 29.9436L79.9896 29.9269L80.0381 29.8939L80.0866 29.8622L80.1351 29.8137L80.1836 29.7652L80.2165 29.7154L80.2495 29.6669L80.2812 29.6023L80.3141 29.537L80.3297 29.4555L80.3465 29.3753L80.395 29.2124L80.4279 29.0495L80.4435 28.9525V28.4818L80.4279 28.3848L80.4111 28.3033L80.3956 28.2063L80.3626 28.1248L80.3471 28.0278L80.3141 27.9464L80.2656 27.8649L80.2171 27.7835L80.1686 27.702L80.1201 27.6218L80.0548 27.5565L79.9902 27.4918L79.9087 27.4433L79.8434 27.378L79.7464 27.3295L79.6494 27.2966L79.5524 27.2481L79.4542 27.2151L79.244 27.1834L79.0655 27.1349L78.9356 27.0851L78.8056 27.0366L78.6104 26.9552L78.4649 26.8905L78.3996 26.875L78.3349 26.8582L78.2534 26.8426H77.945L77.7995 26.8582L77.6186 26.875ZM106.96 23.2858L106.879 23.302H106.766L106.636 23.3343L106.473 23.3835L106.294 23.432L106.099 23.4811L105.872 23.5619L105.645 23.6428L105.401 23.7242L105.125 23.8212L104.85 23.9512L104.557 24.065L104.265 24.1943L103.956 24.3404L103.647 24.5027L103.339 24.6489L103.015 24.8273L102.706 25.022L102.381 25.2004L102.073 25.4118L101.764 25.6226L101.456 25.8496L101.148 26.0766L100.872 26.3209L100.579 26.5641L100.319 26.824L100.059 27.1007L99.8324 27.3762L99.6222 27.669L99.4108 27.9607L99.2323 28.2691L99.0694 28.5775L98.9395 28.9027L98.825 29.2111L98.7436 29.5351L98.6789 29.8435L98.646 30.152L98.6304 30.4448V30.7533L98.6634 31.0461L98.7119 31.3216L98.7765 31.6145L98.858 31.8899L98.955 32.1654L99.0694 32.4253L99.1994 32.6852L99.3623 32.9296L99.524 33.1727L99.7024 33.4171L99.8809 33.6441L100.076 33.8555L100.288 34.0669L100.515 34.2783L100.741 34.4568L100.986 34.6353L101.229 34.8137L101.489 34.9754L101.749 35.1221L102.009 35.2677L102.284 35.3821L102.544 35.4952L102.821 35.5935L103.096 35.6905L103.372 35.7552L103.517 35.7881L103.647 35.8366L103.794 35.8851L103.924 35.9181L104.054 35.9827L104.184 36.0312L104.297 36.081L104.427 36.1457L104.541 36.2103L104.671 36.2756L104.785 36.3403L104.882 36.4217L104.996 36.487L105.093 36.5685L105.191 36.65L105.304 36.7302L105.386 36.8116L105.483 36.8931L105.564 36.9901L105.646 37.0715L105.727 37.1686L105.792 37.25L105.857 37.347L105.922 37.4614L105.987 37.5584L106.036 37.6554L106.084 37.7537L106.133 37.8507L106.166 37.9477L106.199 38.0621L106.214 38.1591L106.247 38.2735L106.263 38.3705V38.4837L106.278 38.5981V38.8095L106.263 38.9227L106.247 39.0209L106.23 39.1341L106.215 39.2324L106.182 39.3455L106.133 39.4425L106.085 39.5569L106.036 39.654L105.988 39.7684L105.922 39.8654L105.841 39.9624L105.761 40.0768L105.679 40.1738L105.565 40.2708L105.468 40.3678L105.354 40.4822L105.224 40.5637L105.094 40.6768L104.948 40.7751L104.803 40.8721L104.64 40.9536L104.461 41.0506L104.283 41.1476L104.087 41.229L103.893 41.326L103.667 41.4075L103.44 41.4889L102.984 41.6674L102.53 41.8459L102.092 42.0243L101.654 42.2196L101.442 42.3166L101.248 42.4136L101.053 42.495L100.859 42.6095L100.664 42.7065L100.502 42.8035L100.322 42.9179L100.144 43.0149L99.9822 43.1281L99.8355 43.2425L99.69 43.3556L99.5445 43.4701L99.4145 43.5845L99.3001 43.6976L99.1869 43.8276L99.0887 43.942L98.9917 44.0564L98.9102 44.1851L98.8456 44.3151L98.7803 44.4451L98.7318 44.575L98.6833 44.705L98.6503 44.8349V44.9817L98.6348 45.0787V45.2087L98.6503 45.3218V45.4518L98.6671 45.5818L98.6826 45.7117L98.7156 45.8417L98.7473 45.9884L98.7803 46.1184L98.8132 46.2483L98.8617 46.3938L98.927 46.5238L98.9917 46.6538L99.0402 46.7837L99.1217 46.8969L99.1869 47.0269L99.2672 47.1413L99.3654 47.2383L99.4624 47.3353L99.5439 47.4335L99.657 47.5137L99.7715 47.579L99.8846 47.6437L100.015 47.6922L100.145 47.7252L100.274 47.7419L100.421 47.7575L100.567 47.7419L100.712 47.7252L100.891 47.6767L101.054 47.6282L101.232 47.5467L101.606 47.3682L101.963 47.1898L102.305 47.0113L102.645 46.8161L102.97 46.6376L103.279 46.4591L103.57 46.2651L103.863 46.0867L104.156 45.9082L104.416 45.713L104.676 45.5345L104.936 45.356L105.39 45.0146L105.828 44.6733L106.202 44.3648L106.559 44.0732L106.868 43.8133L107.159 43.5863L107.387 43.3911L107.598 43.2456L107.696 43.1803L107.793 43.1318L107.858 43.1001L107.939 43.0671L108.004 43.0342L108.069 42.9695L108.15 42.8712L108.232 42.7581L108.313 42.5952L108.395 42.4322L108.475 42.2382L108.54 42.0268L108.622 41.7999L108.703 41.5555L108.768 41.2956L108.833 41.0201L108.898 40.7446L108.963 40.4517L109.012 40.1433L109.043 39.8504L109.076 39.5433L109.109 39.2349L109.125 38.9252V38.3251L109.109 38.0323L109.076 37.7394L109.043 37.4639L108.979 37.204L108.913 36.9609L108.816 36.7165L108.719 36.4895L108.589 36.2943L108.459 36.1158L108.297 35.9541L108.118 35.8242L107.728 35.5798L107.338 35.3528L106.95 35.1259L106.543 34.8989L106.138 34.6875L105.732 34.4761L105.327 34.2647L104.937 34.0707L104.547 33.8592L104.19 33.6808L103.832 33.4855L103.508 33.3071L103.215 33.1454L102.94 32.9657L102.81 32.901L102.696 32.8196L102.582 32.7381L102.485 32.6566L102.387 32.592L102.307 32.495L102.241 32.4135L102.193 32.3165L102.16 32.2183L102.128 32.1051V31.7637L102.16 31.6493L102.193 31.5193L102.226 31.3894L102.29 31.2607L102.356 31.1307L102.437 30.9839L102.517 30.854L102.616 30.7085L102.713 30.5785L102.827 30.433L102.94 30.2863L103.07 30.1408L103.216 29.9953L103.362 29.8485L103.508 29.703L103.671 29.5575L103.833 29.4108L104.012 29.2652L104.191 29.1353L104.369 28.9898L104.563 28.8598L104.758 28.7131L104.969 28.5831L105.164 28.4699L105.358 28.3555L105.536 28.2585L105.715 28.1939L105.893 28.1286L106.056 28.0639L106.219 28.0141L106.365 27.9824L106.657 27.9339L106.917 27.8842L107.177 27.8525L107.42 27.8195L107.535 27.7866L107.649 27.771L107.762 27.7381L107.877 27.6896L107.99 27.6411L108.104 27.5758L108.201 27.4956L108.316 27.4141L108.429 27.3171L108.543 27.2027L108.657 27.0572L108.771 26.9104L108.901 26.7487L109.015 26.5373L109.145 26.3259L109.275 26.0989L109.388 25.8546L109.485 25.6276L109.551 25.4L109.615 25.2054L109.632 25.0108L109.648 24.8485L109.632 24.6862L109.615 24.5239L109.567 24.3939L109.502 24.264L109.437 24.134L109.356 24.037L109.259 23.9394L109.145 23.8417L109.031 23.7609L108.917 23.6956L108.787 23.6309L108.657 23.5663L108.527 23.5172L108.381 23.4687L108.251 23.4363L108.106 23.404L107.976 23.3717L107.83 23.3555L107.57 23.3225L107.342 23.3064L107.132 23.2902H106.96V23.2858Z" fill="black"/>
</svg>
