<svg width="107" height="13" viewBox="0 0 107 13" fill="none" xmlns="http://www.w3.org/2000/svg">
<path d="M14.688 0.799999L11.536 12H9.92L7.52 3.104L5.12 12H3.504L0.352 0.799999H2L4.368 9.584L6.72 0.799999H8.352L10.704 9.552L13.056 0.799999H14.688ZM42.4642 12.224C41.3762 12.224 40.4002 11.9787 39.5362 11.488C38.6829 10.9867 38.0162 10.2933 37.5362 9.408C37.0562 8.52267 36.8162 7.52 36.8162 6.4C36.8162 5.312 37.0562 4.32533 37.5362 3.44C38.0269 2.55467 38.6989 1.856 39.5522 1.344C40.4162 0.831999 41.3762 0.575999 42.4322 0.575999C43.6269 0.575999 44.6242 0.853333 45.4242 1.408C46.2349 1.96267 46.8216 2.71467 47.1842 3.664L45.6962 4.176C45.4296 3.51467 45.0296 2.99733 44.4962 2.624C43.9736 2.24 43.3069 2.048 42.4962 2.048C41.7069 2.048 41.0029 2.24533 40.3842 2.64C39.7656 3.024 39.2802 3.54667 38.9282 4.208C38.5869 4.86933 38.4162 5.6 38.4162 6.4C38.4162 7.22133 38.5869 7.96267 38.9282 8.624C39.2802 9.28533 39.7656 9.808 40.3842 10.192C41.0029 10.5653 41.7122 10.752 42.5122 10.752C43.2696 10.752 43.9042 10.592 44.4162 10.272C44.9389 9.94133 45.3282 9.51467 45.5842 8.992C45.8402 8.46933 45.9789 7.91467 46.0002 7.328H43.3922V5.952H47.5682V12H46.4322L46.1922 10.528C46.0429 10.7627 45.8082 11.008 45.4882 11.264C45.1682 11.52 44.7469 11.744 44.2242 11.936C43.7122 12.128 43.1256 12.224 42.4642 12.224ZM50.1601 0.799999H57.0721V2.24H51.7601V5.648H56.4001V7.056H51.7601V10.56H57.0721V12H50.1601V0.799999ZM59.4656 0.799999H61.1456L66.9536 9.424V0.799999H68.5696V12H66.8896L61.0656 3.392V12H59.4656V0.799999ZM99.9164 0.799999H106.828V2.24H101.516V5.648H106.156V7.056H101.516V10.56H106.828V12H99.9164V0.799999Z" fill="white"/>
<path d="M16.4709 0.799999H18.7749V12H16.4709V0.799999ZM21.3225 0.799999H23.6905L28.5225 8.224V0.799999H30.8265V12H28.4745L23.6265 4.592V12H21.3225V0.799999ZM33.9365 7.328C33.6058 7.328 33.3232 7.21067 33.0885 6.976C32.8538 6.74133 32.7365 6.45867 32.7365 6.128C32.7365 5.79733 32.8538 5.51467 33.0885 5.28C33.3232 5.03467 33.6058 4.912 33.9365 4.912C34.2778 4.912 34.5658 5.02933 34.8005 5.264C35.0352 5.49867 35.1525 5.78667 35.1525 6.128C35.1525 6.45867 35.0298 6.74133 34.7845 6.976C34.5498 7.21067 34.2672 7.328 33.9365 7.328ZM33.9365 12.112C33.6058 12.112 33.3232 11.9947 33.0885 11.76C32.8538 11.5253 32.7365 11.2427 32.7365 10.912C32.7365 10.5813 32.8538 10.2987 33.0885 10.064C33.3232 9.81867 33.6058 9.696 33.9365 9.696C34.2778 9.696 34.5658 9.81333 34.8005 10.048C35.0352 10.2827 35.1525 10.5707 35.1525 10.912C35.1525 11.2427 35.0298 11.5253 34.7845 11.76C34.5498 11.9947 34.2672 12.112 33.9365 12.112ZM75.8259 12.224C74.9832 12.224 74.2205 12.064 73.5379 11.744C72.8552 11.424 72.3059 10.9067 71.8899 10.192C71.4739 9.47733 71.2659 8.56533 71.2659 7.456V0.799999H73.5699V7.344C73.5699 8.272 73.7512 8.96 74.1139 9.408C74.4872 9.856 75.0579 10.08 75.8259 10.08C76.5939 10.08 77.1539 9.85067 77.5059 9.392C77.8685 8.93333 78.0499 8.25067 78.0499 7.344V0.799999H80.3539V7.472C80.3539 9.11467 79.9325 10.32 79.0899 11.088C78.2579 11.8453 77.1699 12.224 75.8259 12.224ZM82.8827 0.799999H85.1867V12H82.8827V0.799999ZM87.7344 0.799999H90.1024L94.9344 8.224V0.799999H97.2384V12H94.8864L90.0384 4.592V12H87.7344V0.799999Z" fill="url(#paint0_linear_41_3817)"/>
<defs>
<linearGradient id="paint0_linear_41_3817" x1="17.4441" y1="11.9584" x2="20.2982" y2="-7.50665" gradientUnits="userSpaceOnUse">
<stop stop-color="#AD6FFF"/>
<stop offset="0.51" stop-color="#FD98E8"/>
<stop offset="1" stop-color="#FF7385"/>
</linearGradient>
</defs>
</svg>
