<svg width="26" height="12" viewBox="0 0 26 12" fill="none" xmlns="http://www.w3.org/2000/svg">
<g clip-path="url(#clip0_41_3828)">
<path d="M12.2855 6.20461V9.13374H11.3105V1.88965H13.8455C14.463 1.88965 15.048 2.11012 15.503 2.51957C15.958 2.89752 16.1855 3.46445 16.1855 4.06288C16.1855 4.6613 15.958 5.19673 15.503 5.60618C15.048 6.01563 14.4955 6.2361 13.8455 6.2361L12.2855 6.20461ZM12.2855 2.77154V5.29122H13.9105C14.268 5.29122 14.6255 5.16524 14.853 4.91327C15.373 4.44083 15.373 3.65343 14.8855 3.18099L14.853 3.14949C14.593 2.89752 14.268 2.74004 13.9105 2.77154H12.2855Z" fill="#5F6368"/>
<path d="M18.428 4.03149C19.143 4.03149 19.6955 4.22047 20.118 4.59842C20.5405 4.97638 20.7355 5.48031 20.7355 6.11023V9.13386H19.8255V8.44094H19.793C19.403 9.00787 18.8505 9.29134 18.2005 9.29134C17.648 9.29134 17.1605 9.13386 16.7705 8.8189C16.413 8.50394 16.1855 8.06299 16.1855 7.59055C16.1855 7.08661 16.3805 6.67716 16.7705 6.3622C17.1605 6.04724 17.713 5.92126 18.363 5.92126C18.948 5.92126 19.403 6.01575 19.7605 6.23622V6.01575C19.7605 5.70079 19.6305 5.38582 19.3705 5.19685C19.1105 4.97638 18.7855 4.85039 18.428 4.85039C17.8755 4.85039 17.453 5.07086 17.1605 5.51181L16.3155 5.00787C16.8355 4.34645 17.518 4.03149 18.428 4.03149ZM17.193 7.62205C17.193 7.87401 17.323 8.09449 17.518 8.22047C17.7455 8.37795 18.0055 8.47244 18.2655 8.47244C18.6555 8.47244 19.0455 8.31496 19.338 8.03149C19.663 7.74803 19.8255 7.40157 19.8255 7.02362C19.533 6.80315 19.1105 6.67716 18.558 6.67716C18.168 6.67716 17.843 6.77165 17.583 6.96063C17.323 7.11811 17.193 7.33858 17.193 7.62205Z" fill="#5F6368"/>
<path d="M26.0009 4.18896L22.7834 11.3386H21.8084L23.0109 8.85038L20.8984 4.22046H21.9384L23.4659 7.77952H23.4984L24.9934 4.22046H26.0009V4.18896Z" fill="#5F6368"/>
<path d="M8.41656 5.57476C8.41656 5.29129 8.38406 5.00783 8.35156 4.72437H4.28906V6.33066H6.59656C6.49906 6.8346 6.20656 7.30704 5.75156 7.59051V8.62988H7.14906C7.96156 7.90547 8.41656 6.8346 8.41656 5.57476Z" fill="#4285F4"/>
<path d="M4.29008 9.6379C5.46008 9.6379 6.43508 9.25995 7.15008 8.63003L5.75258 7.59066C5.36258 7.84263 4.87508 8.00011 4.29008 8.00011C3.18508 8.00011 2.21008 7.2757 1.88508 6.26782H0.455078V7.33869C1.20258 8.75601 2.66508 9.6379 4.29008 9.6379Z" fill="#34A853"/>
<path d="M1.88531 6.26774C1.69031 5.7638 1.69031 5.19688 1.88531 4.66144V3.59058H0.455312C-0.162188 4.75593 -0.162188 6.14176 0.455312 7.33861L1.88531 6.26774Z" fill="#FBBC04"/>
<path d="M4.29078 2.96078C4.90828 2.96078 5.49328 3.18125 5.94828 3.5907L7.18328 2.39385C6.40328 1.70094 5.36328 1.29149 4.32328 1.32298C2.69828 1.32298 1.20328 2.20487 0.488281 3.6222L1.91828 4.69306C2.21078 3.68519 3.18578 2.96078 4.29078 2.96078Z" fill="#EA4335"/>
</g>
<defs>
<clipPath id="clip0_41_3828">
<rect width="26" height="12" fill="white"/>
</clipPath>
</defs>
</svg>
