<svg width="24" height="10" viewBox="0 0 24 10" fill="none" xmlns="http://www.w3.org/2000/svg">
<path d="M4.3867 1.28925C4.10545 1.62702 3.65545 1.89343 3.20545 1.85538C3.1492 1.39867 3.36952 0.913416 3.62733 0.613701C3.90858 0.266413 4.40077 0.0190295 4.7992 0C4.84608 0.475737 4.66327 0.94196 4.3867 1.28925ZM4.79452 1.94577C4.14295 1.90771 3.58514 2.3216 3.27577 2.3216C2.9617 2.3216 2.48827 1.9648 1.97264 1.97431C1.30233 1.98382 0.678891 2.36917 0.336704 2.98287C-0.366421 4.21028 0.153891 6.02759 0.833579 7.02664C1.16639 7.52141 1.56483 8.06375 2.08983 8.04472C2.5867 8.02569 2.78358 7.71646 3.38358 7.71646C3.98827 7.71646 4.1617 8.04472 4.6867 8.0352C5.23045 8.02569 5.57264 7.54044 5.90545 7.04567C6.28514 6.4843 6.43983 5.9372 6.4492 5.90866C6.43983 5.89914 5.3992 5.49477 5.38983 4.27688C5.38045 3.2588 6.21014 2.77355 6.24764 2.745C5.77889 2.04091 5.04764 1.9648 4.79452 1.94577ZM8.55858 0.566127V7.98287H9.69296V5.44719H11.2633C12.6976 5.44719 13.7055 4.44814 13.7055 3.0019C13.7055 1.55566 12.7164 0.566127 11.3008 0.566127H8.55858ZM9.69296 1.53663H11.0008C11.9851 1.53663 12.5476 2.06946 12.5476 3.00666C12.5476 3.94386 11.9851 4.48145 10.9961 4.48145H9.69296V1.53663ZM15.7773 8.03996C16.4898 8.03996 17.1508 7.67365 17.4508 7.09325H17.4742V7.98287H18.5242V4.29115C18.5242 3.22074 17.6805 2.53092 16.382 2.53092C15.1773 2.53092 14.2867 3.23026 14.2539 4.19125H15.2758C15.3601 3.73454 15.7773 3.43482 16.3492 3.43482C17.043 3.43482 17.432 3.76308 17.432 4.36727V4.7764L16.0164 4.86204C14.6992 4.94291 13.9867 5.49001 13.9867 6.44148C13.9867 7.40247 14.7226 8.03996 15.7773 8.03996ZM16.082 7.15985C15.4773 7.15985 15.093 6.86489 15.093 6.41294C15.093 5.94672 15.4633 5.67555 16.1711 5.63273L17.432 5.55186V5.9705C17.432 6.66508 16.8508 7.15985 16.082 7.15985ZM19.9258 10C21.032 10 21.5523 9.57184 22.007 8.27307L23.9992 2.60228H22.8461L21.5101 6.98383H21.4867L20.1508 2.60228H18.9648L20.8867 8.0019L20.7836 8.33016C20.6101 8.88678 20.3289 9.10086 19.8273 9.10086C19.7383 9.10086 19.5648 9.09134 19.4945 9.08183V9.97146C19.5601 9.99049 19.8414 10 19.9258 10Z" fill="black"/>
</svg>
