<svg width="13" height="16" viewBox="0 0 13 16" fill="none" xmlns="http://www.w3.org/2000/svg">
<path d="M4.87808 3.07007C4.77269 3.07016 4.67079 3.10782 4.59068 3.1763C4.51057 3.24478 4.4575 3.33959 4.44103 3.44368L3.71484 8.04944C3.7487 7.83434 3.93405 7.67583 4.15189 7.67583H6.27985C8.42148 7.67583 10.2388 6.1135 10.5708 3.99632C10.5955 3.83825 10.6095 3.6787 10.6127 3.51874C10.0685 3.23336 9.42912 3.07007 8.72858 3.07007H4.87808Z" fill="#001C64"/>
<path d="M10.6126 3.51904C10.6094 3.679 10.5954 3.83855 10.5707 3.99662C10.2386 6.1138 8.42115 7.67613 6.27969 7.67613H4.15173C3.93406 7.67613 3.74854 7.83447 3.71468 8.04974L3.04697 12.2821L2.62873 14.9372C2.62057 14.9885 2.62363 15.0409 2.63771 15.0909C2.65178 15.1409 2.67655 15.1873 2.71028 15.2268C2.74401 15.2663 2.78591 15.298 2.83308 15.3197C2.88026 15.3415 2.93159 15.3527 2.98353 15.3527H5.29325C5.39864 15.3526 5.50054 15.3149 5.58065 15.2464C5.66076 15.178 5.71382 15.0832 5.7303 14.9791L6.33867 11.1204C6.35516 11.0162 6.40828 10.9214 6.48846 10.8529C6.56863 10.7844 6.67062 10.7468 6.77607 10.7467H8.13595C10.2776 10.7467 12.0949 9.18442 12.4269 7.06724C12.6627 5.56458 11.9059 4.19719 10.6126 3.51904Z" fill="#0070E0"/>
<path d="M2.25399 0C2.03632 0 1.85081 0.158336 1.81695 0.373269L0.0044608 11.8665C-0.029908 12.0847 0.138692 12.282 0.35961 12.282H3.04739L3.71476 8.04965L4.44094 3.44389C4.45742 3.3398 4.51049 3.24499 4.5906 3.17651C4.67071 3.10803 4.7726 3.07037 4.87799 3.07028H8.72849C9.42921 3.07028 10.0684 3.23375 10.6126 3.51895C10.6499 1.5914 9.05936 0 6.87258 0H2.25399Z" fill="#003087"/>
</svg>
