<svg width="24" height="24" viewBox="0 0 24 24" fill="none" xmlns="http://www.w3.org/2000/svg">
<g clip-path="url(#clip0_41_2951)">
<path opacity="0.2" d="M12 13.5C14.4853 13.5 16.5 11.4853 16.5 9C16.5 6.51472 14.4853 4.5 12 4.5C9.51472 4.5 7.5 6.51472 7.5 9C7.5 11.4853 9.51472 13.5 12 13.5Z" fill="url(#paint0_linear_41_2951)"/>
<path d="M12 16.5C16.1421 16.5 19.5 13.1421 19.5 9C19.5 4.85786 16.1421 1.5 12 1.5C7.85786 1.5 4.5 4.85786 4.5 9C4.5 13.1421 7.85786 16.5 12 16.5Z" stroke="url(#paint1_linear_41_2951)" stroke-width="1.5" stroke-linecap="round" stroke-linejoin="round"/>
<path d="M12 13.5C14.4853 13.5 16.5 11.4853 16.5 9C16.5 6.51472 14.4853 4.5 12 4.5C9.51472 4.5 7.5 6.51472 7.5 9C7.5 11.4853 9.51472 13.5 12 13.5Z" stroke="url(#paint2_linear_41_2951)" stroke-width="1.5" stroke-linecap="round" stroke-linejoin="round"/>
<path d="M16.5 15V22.5L11.9991 20.25L7.5 22.5V15.0009" stroke="url(#paint3_linear_41_2951)" stroke-width="1.5" stroke-linecap="round" stroke-linejoin="round"/>
</g>
<defs>
<linearGradient id="paint0_linear_41_2951" x1="8.95367" y1="13.466" x2="16.5762" y2="8.17112" gradientUnits="userSpaceOnUse">
<stop stop-color="#AD6FFF"/>
<stop offset="0.51" stop-color="#FD98E8"/>
<stop offset="1" stop-color="#FF7385"/>
</linearGradient>
<linearGradient id="paint1_linear_41_2951" x1="6.92279" y1="16.4433" x2="19.627" y2="7.61854" gradientUnits="userSpaceOnUse">
<stop stop-color="#AD6FFF"/>
<stop offset="0.51" stop-color="#FD98E8"/>
<stop offset="1" stop-color="#FF7385"/>
</linearGradient>
<linearGradient id="paint2_linear_41_2951" x1="8.95367" y1="13.466" x2="16.5762" y2="8.17112" gradientUnits="userSpaceOnUse">
<stop stop-color="#AD6FFF"/>
<stop offset="0.51" stop-color="#FD98E8"/>
<stop offset="1" stop-color="#FF7385"/>
</linearGradient>
<linearGradient id="paint3_linear_41_2951" x1="8.95367" y1="22.4717" x2="15.6214" y2="16.9137" gradientUnits="userSpaceOnUse">
<stop stop-color="#AD6FFF"/>
<stop offset="0.51" stop-color="#FD98E8"/>
<stop offset="1" stop-color="#FF7385"/>
</linearGradient>
<clipPath id="clip0_41_2951">
<rect width="24" height="24" fill="white"/>
</clipPath>
</defs>
</svg>
