<svg width="28" height="28" viewBox="0 0 28 28" fill="none" xmlns="http://www.w3.org/2000/svg">
<g clip-path="url(#clip0_121_1234)">
<path d="M21.875 8.27312V4.375C21.875 3.91087 21.6906 3.46575 21.3624 3.13756C21.0342 2.80937 20.5891 2.625 20.125 2.625H7.875C7.41087 2.625 6.96575 2.80937 6.63756 3.13756C6.30937 3.46575 6.125 3.91087 6.125 4.375V8.3125C6.12559 8.58407 6.1891 8.85182 6.31056 9.09472C6.43201 9.33763 6.6081 9.54908 6.825 9.7125L12.542 14L6.825 18.2875C6.6081 18.4509 6.43201 18.6624 6.31056 18.9053C6.1891 19.1482 6.12559 19.4159 6.125 19.6875V23.625C6.125 24.0891 6.30937 24.5342 6.63756 24.8624C6.96575 25.1906 7.41087 25.375 7.875 25.375H20.125C20.5891 25.375 21.0342 25.1906 21.3624 24.8624C21.6906 24.5342 21.875 24.0891 21.875 23.625V19.7269C21.8744 19.4563 21.8114 19.1896 21.6909 18.9474C21.5705 18.7051 21.3958 18.4939 21.1805 18.3302L15.4514 14L21.1805 9.66984C21.3958 9.50608 21.5705 9.29487 21.6909 9.05264C21.8114 8.8104 21.8744 8.54366 21.875 8.27312ZM20.125 4.375V7H7.875V4.375H20.125Z" fill="#FF7485"/>
</g>
<defs>
<clipPath id="clip0_121_1234">
<rect width="28" height="28" fill="white"/>
</clipPath>
</defs>
</svg>
