<svg width="28" height="28" viewBox="0 0 28 28" fill="none" xmlns="http://www.w3.org/2000/svg">
<g clip-path="url(#clip0_121_1237)">
<path d="M24.0626 18.4942L14.0001 24.3622L3.9376 18.4942C3.73837 18.395 3.50882 18.3755 3.29568 18.4395C3.08255 18.5036 2.90184 18.6465 2.79034 18.8391C2.67884 19.0318 2.64493 19.2596 2.69551 19.4764C2.74609 19.6931 2.87736 19.8824 3.0626 20.0058L13.5626 26.1308C13.6964 26.2088 13.8485 26.2499 14.0034 26.2499C14.1583 26.2499 14.3104 26.2088 14.4442 26.1308L24.9442 20.0058C25.045 19.9487 25.1335 19.8722 25.2046 19.7807C25.2756 19.6891 25.3278 19.5844 25.358 19.4725C25.3882 19.3607 25.3959 19.2439 25.3807 19.129C25.3654 19.0142 25.3275 18.9035 25.2691 18.8034C25.2108 18.7033 25.1331 18.6158 25.0406 18.546C24.9482 18.4761 24.8427 18.4254 24.7305 18.3966C24.6183 18.3678 24.5014 18.3617 24.3868 18.3784C24.2721 18.3952 24.1619 18.4345 24.0626 18.4942Z" fill="#FF7485"/>
<path d="M24.0626 13.2442L14.0001 19.1122L3.9376 13.2442C3.73837 13.145 3.50882 13.1255 3.29568 13.1895C3.08255 13.2536 2.90184 13.3965 2.79034 13.5891C2.67884 13.7818 2.64493 14.0096 2.69551 14.2264C2.74609 14.4431 2.87736 14.6324 3.0626 14.7558L13.5626 20.8808C13.6964 20.9588 13.8485 20.9999 14.0034 20.9999C14.1583 20.9999 14.3104 20.9588 14.4442 20.8808L24.9442 14.7558C25.045 14.6987 25.1335 14.6222 25.2046 14.5307C25.2756 14.4391 25.3278 14.3344 25.358 14.2225C25.3882 14.1107 25.3959 13.9939 25.3807 13.879C25.3654 13.7642 25.3275 13.6535 25.2691 13.5534C25.2108 13.4533 25.1331 13.3658 25.0406 13.296C24.9482 13.2261 24.8427 13.1754 24.7305 13.1466C24.6183 13.1178 24.5014 13.1117 24.3868 13.1284C24.2721 13.1452 24.1619 13.1845 24.0626 13.2442Z" fill="#FF7485"/>
<path d="M3.06249 9.50578L13.5625 15.6308C13.6963 15.7088 13.8484 15.7499 14.0033 15.7499C14.1581 15.7499 14.3103 15.7088 14.444 15.6308L24.944 9.50578C25.0761 9.42872 25.1857 9.31839 25.2619 9.18578C25.338 9.05317 25.3781 8.90292 25.3781 8.75C25.3781 8.59707 25.338 8.44682 25.2619 8.31422C25.1857 8.18161 25.0761 8.07128 24.944 7.99422L14.444 1.86922C14.3103 1.79119 14.1581 1.75008 14.0033 1.75008C13.8484 1.75008 13.6963 1.79119 13.5625 1.86922L3.06249 7.99422C2.9304 8.07128 2.82082 8.18161 2.74466 8.31422C2.6685 8.44682 2.62842 8.59707 2.62842 8.75C2.62842 8.90292 2.6685 9.05317 2.74466 9.18578C2.82082 9.31839 2.9304 9.42872 3.06249 9.50578Z" fill="#FF7485"/>
</g>
<defs>
<clipPath id="clip0_121_1237">
<rect width="28" height="28" fill="white"/>
</clipPath>
</defs>
</svg>
