<svg width="22" height="22" viewBox="0 0 22 22" fill="none" xmlns="http://www.w3.org/2000/svg">
<g clip-path="url(#clip0_173_2246)">
<path d="M8.25 4.8125V17.1875" stroke="white" stroke-width="1.5" stroke-linecap="round" stroke-linejoin="round"/>
<path d="M2.0625 13.75C2.79185 13.75 3.49132 13.4603 4.00704 12.9445C4.52277 12.4288 4.8125 11.7293 4.8125 11C4.8125 10.2707 4.52277 9.57118 4.00704 9.05546C3.49132 8.53973 2.79185 8.25 2.0625 8.25V5.5C2.0625 5.31766 2.13493 5.1428 2.26386 5.01386C2.3928 4.88493 2.56766 4.8125 2.75 4.8125H19.25C19.4323 4.8125 19.6072 4.88493 19.7361 5.01386C19.8651 5.1428 19.9375 5.31766 19.9375 5.5V8.25C19.2082 8.25 18.5087 8.53973 17.993 9.05546C17.4772 9.57118 17.1875 10.2707 17.1875 11C17.1875 11.7293 17.4772 12.4288 17.993 12.9445C18.5087 13.4603 19.2082 13.75 19.9375 13.75V16.5C19.9375 16.6823 19.8651 16.8572 19.7361 16.9861C19.6072 17.1151 19.4323 17.1875 19.25 17.1875H2.75C2.56766 17.1875 2.3928 17.1151 2.26386 16.9861C2.13493 16.8572 2.0625 16.6823 2.0625 16.5V13.75Z" stroke="white" stroke-width="1.5" stroke-linecap="round" stroke-linejoin="round"/>
</g>
<defs>
<clipPath id="clip0_173_2246">
<rect width="22" height="22" fill="white"/>
</clipPath>
</defs>
</svg>
