<svg width="28" height="28" viewBox="0 0 28 28" fill="none" xmlns="http://www.w3.org/2000/svg">
<g clip-path="url(#clip0_121_1231)">
<path d="M14 4.375C11.9233 4.375 9.89323 4.99081 8.16652 6.14457C6.4398 7.29832 5.09399 8.9382 4.29927 10.8568C3.50455 12.7754 3.29661 14.8866 3.70176 16.9234C4.1069 18.9602 5.10693 20.8312 6.57538 22.2996C8.04383 23.7681 9.91476 24.7681 11.9516 25.1732C13.9884 25.5784 16.0996 25.3705 18.0182 24.5757C19.9368 23.781 21.5767 22.4352 22.7304 20.7085C23.8842 18.9818 24.5 16.9517 24.5 14.875C24.4968 12.0912 23.3896 9.42234 21.4211 7.4539C19.4527 5.48545 16.7838 4.37818 14 4.375ZM18.9941 11.1191L14.6191 15.4941C14.5378 15.5754 14.4413 15.6398 14.335 15.6838C14.2288 15.7278 14.115 15.7505 14 15.7505C13.885 15.7505 13.7712 15.7278 13.665 15.6838C13.5588 15.6398 13.4622 15.5754 13.3809 15.4941C13.2996 15.4128 13.2352 15.3163 13.1912 15.21C13.1472 15.1038 13.1245 14.99 13.1245 14.875C13.1245 14.76 13.1472 14.6462 13.1912 14.54C13.2352 14.4337 13.2996 14.3372 13.3809 14.2559L17.7559 9.88094C17.8372 9.79964 17.9338 9.73515 18.04 9.69116C18.1462 9.64716 18.26 9.62451 18.375 9.62451C18.49 9.62451 18.6038 9.64716 18.71 9.69116C18.8163 9.73515 18.9128 9.79964 18.9941 9.88094C19.0754 9.96223 19.1399 10.0587 19.1838 10.165C19.2278 10.2712 19.2505 10.385 19.2505 10.5C19.2505 10.615 19.2278 10.7288 19.1838 10.835C19.1399 10.9413 19.0754 11.0378 18.9941 11.1191ZM10.5 1.75C10.5 1.51794 10.5922 1.29538 10.7563 1.13128C10.9204 0.967187 11.1429 0.875 11.375 0.875H16.625C16.8571 0.875 17.0796 0.967187 17.2437 1.13128C17.4078 1.29538 17.5 1.51794 17.5 1.75C17.5 1.98206 17.4078 2.20462 17.2437 2.36872C17.0796 2.53281 16.8571 2.625 16.625 2.625H11.375C11.1429 2.625 10.9204 2.53281 10.7563 2.36872C10.5922 2.20462 10.5 1.98206 10.5 1.75Z" fill="#FF7485"/>
</g>
<defs>
<clipPath id="clip0_121_1231">
<rect width="28" height="28" fill="white"/>
</clipPath>
</defs>
</svg>
