<svg width="42" height="42" viewBox="0 0 42 42" fill="none" xmlns="http://www.w3.org/2000/svg">
<rect width="42" height="42" rx="6" fill="#FF7485"/>
<g clip-path="url(#clip0_173_1976)">
<path d="M18.25 14.8125V27.1875" stroke="white" stroke-width="1.5" stroke-linecap="round" stroke-linejoin="round"/>
<path d="M12.0625 23.75C12.7918 23.75 13.4913 23.4603 14.007 22.9445C14.5228 22.4288 14.8125 21.7293 14.8125 21C14.8125 20.2707 14.5228 19.5712 14.007 19.0555C13.4913 18.5397 12.7918 18.25 12.0625 18.25V15.5C12.0625 15.3177 12.1349 15.1428 12.2639 15.0139C12.3928 14.8849 12.5677 14.8125 12.75 14.8125H29.25C29.4323 14.8125 29.6072 14.8849 29.7361 15.0139C29.8651 15.1428 29.9375 15.3177 29.9375 15.5V18.25C29.2082 18.25 28.5087 18.5397 27.993 19.0555C27.4772 19.5712 27.1875 20.2707 27.1875 21C27.1875 21.7293 27.4772 22.4288 27.993 22.9445C28.5087 23.4603 29.2082 23.75 29.9375 23.75V26.5C29.9375 26.6823 29.8651 26.8572 29.7361 26.9861C29.6072 27.1151 29.4323 27.1875 29.25 27.1875H12.75C12.5677 27.1875 12.3928 27.1151 12.2639 26.9861C12.1349 26.8572 12.0625 26.6823 12.0625 26.5V23.75Z" stroke="white" stroke-width="1.5" stroke-linecap="round" stroke-linejoin="round"/>
</g>
<defs>
<clipPath id="clip0_173_1976">
<rect width="22" height="22" fill="white" transform="translate(10 10)"/>
</clipPath>
</defs>
</svg>
