<svg width="22" height="22" viewBox="0 0 22 22" fill="none" xmlns="http://www.w3.org/2000/svg">
<mask id="mask0_173_1999" style="mask-type:alpha" maskUnits="userSpaceOnUse" x="0" y="0" width="22" height="22">
<rect width="22" height="22" fill="#D9D9D9"/>
</mask>
<g mask="url(#mask0_173_1999)">
<path d="M12.6042 11.6522C11.9637 11.6522 11.4217 11.4304 10.978 10.9867C10.5343 10.543 10.3125 10.001 10.3125 9.36054C10.3125 8.7201 10.5343 8.17804 10.978 7.73438C11.4217 7.29071 11.9637 7.06888 12.6042 7.06888C13.2446 7.06888 13.7867 7.29071 14.2303 7.73438C14.674 8.17804 14.8958 8.7201 14.8958 9.36054C14.8958 10.001 14.674 10.543 14.2303 10.9867C13.7867 11.4304 13.2446 11.6522 12.6042 11.6522ZM6.55759 14.4904C6.10201 14.4904 5.71197 14.3282 5.38747 14.0037C5.06297 13.6792 4.90072 13.2891 4.90072 12.8333V5.88775C4.90072 5.43217 5.06297 5.04212 5.38747 4.71762C5.71197 4.39312 6.10201 4.23088 6.55759 4.23088H18.6505C19.1062 4.23088 19.4963 4.39312 19.8208 4.71762C20.1453 5.04212 20.3076 5.43217 20.3076 5.88775V12.8333C20.3076 13.2891 20.1453 13.6792 19.8208 14.0037C19.4963 14.3282 19.1062 14.4904 18.6505 14.4904H6.55759ZM7.93259 13.1154H17.2757C17.2757 12.6583 17.438 12.2678 17.7625 11.9439C18.087 11.6202 18.477 11.4583 18.9326 11.4583V7.26275C18.4755 7.26275 18.0851 7.1005 17.7613 6.776C17.4376 6.4515 17.2757 6.06146 17.2757 5.60588H7.93259C7.93259 6.06299 7.77034 6.45341 7.44584 6.77715C7.12134 7.10088 6.7313 7.26275 6.27572 7.26275V11.4583C6.73283 11.4583 7.12325 11.6206 7.44699 11.9451C7.77072 12.2696 7.93259 12.6597 7.93259 13.1154ZM17.5752 17.6988H3.34949C2.89375 17.6988 2.50363 17.5365 2.17913 17.212C1.85463 16.8875 1.69238 16.4974 1.69238 16.0417V6.96323H3.06738V16.0417C3.06738 16.1121 3.09672 16.1767 3.15538 16.2355C3.2142 16.2944 3.2789 16.3238 3.34949 16.3238H17.5752V17.6988ZM6.55759 13.1154H6.27572V5.60588H6.55759C6.4812 5.60588 6.41513 5.63376 6.35936 5.68952C6.3036 5.74529 6.27572 5.81136 6.27572 5.88775V12.8333C6.27572 12.9097 6.3036 12.9758 6.35936 13.0316C6.41513 13.0875 6.4812 13.1154 6.55759 13.1154Z" fill="white"/>
</g>
</svg>
