<svg width="26" height="25" viewBox="0 0 26 25" fill="none" xmlns="http://www.w3.org/2000/svg">
<path d="M25.8672 24.5C25.7794 24.652 25.6531 24.7783 25.5011 24.8661C25.349 24.9538 25.1765 25 25.0009 25H1.00093C0.825478 24.9998 0.653164 24.9535 0.501287 24.8656C0.349411 24.7778 0.223318 24.6515 0.135671 24.4995C0.0480244 24.3475 0.00190811 24.1752 0.00195316 23.9997C0.0019982 23.8243 0.0482029 23.6519 0.135928 23.5C2.03968 20.2087 4.97343 17.8487 8.39718 16.73C6.70364 15.7218 5.38786 14.1856 4.65191 12.3572C3.91596 10.5289 3.80053 8.50948 4.32335 6.60918C4.84617 4.70887 5.97833 3.03272 7.54596 1.83814C9.11359 0.643552 11.03 -0.00341797 13.0009 -0.00341797C14.9718 -0.00341797 16.8883 0.643552 18.4559 1.83814C20.0235 3.03272 21.1557 4.70887 21.6785 6.60918C22.2013 8.50948 22.0859 10.5289 21.3499 12.3572C20.614 14.1856 19.2982 15.7218 17.6047 16.73C21.0284 17.8487 23.9622 20.2087 25.8659 23.5C25.9539 23.6519 26.0003 23.8243 26.0005 23.9998C26.0007 24.1754 25.9548 24.3479 25.8672 24.5Z" fill="#FF7385"/>
</svg>
