<svg width="48" height="48" viewBox="0 0 48 48" fill="none" xmlns="http://www.w3.org/2000/svg">
<circle cx="24" cy="24" r="23.25" fill="url(#paint0_linear_0_1)" fill-opacity="0.1" stroke="url(#paint1_linear_0_1)" stroke-width="1.5"/>
<g clip-path="url(#clip0_0_1)">
<path opacity="0.2" d="M24 25.5C26.4853 25.5 28.5 23.4853 28.5 21C28.5 18.5147 26.4853 16.5 24 16.5C21.5147 16.5 19.5 18.5147 19.5 21C19.5 23.4853 21.5147 25.5 24 25.5Z" fill="url(#paint2_linear_0_1)"/>
<path d="M24 28.5C28.1421 28.5 31.5 25.1421 31.5 21C31.5 16.8579 28.1421 13.5 24 13.5C19.8579 13.5 16.5 16.8579 16.5 21C16.5 25.1421 19.8579 28.5 24 28.5Z" stroke="url(#paint3_linear_0_1)" stroke-width="1.5" stroke-linecap="round" stroke-linejoin="round"/>
<path d="M24 25.5C26.4853 25.5 28.5 23.4853 28.5 21C28.5 18.5147 26.4853 16.5 24 16.5C21.5147 16.5 19.5 18.5147 19.5 21C19.5 23.4853 21.5147 25.5 24 25.5Z" stroke="url(#paint4_linear_0_1)" stroke-width="1.5" stroke-linecap="round" stroke-linejoin="round"/>
<path d="M28.5 27V34.5L23.9991 32.25L19.5 34.5V27.0009" stroke="url(#paint5_linear_0_1)" stroke-width="1.5" stroke-linecap="round" stroke-linejoin="round"/>
</g>
<defs>
<linearGradient id="paint0_linear_0_1" x1="7.75293" y1="47.8186" x2="48.4065" y2="19.5793" gradientUnits="userSpaceOnUse">
<stop stop-color="#AD6FFF"/>
<stop offset="0.51" stop-color="#FD98E8"/>
<stop offset="1" stop-color="#FF7385"/>
</linearGradient>
<linearGradient id="paint1_linear_0_1" x1="7.75293" y1="47.8186" x2="48.4065" y2="19.5793" gradientUnits="userSpaceOnUse">
<stop stop-color="#AD6FFF"/>
<stop offset="0.51" stop-color="#FD98E8"/>
<stop offset="1" stop-color="#FF7385"/>
</linearGradient>
<linearGradient id="paint2_linear_0_1" x1="20.9537" y1="25.466" x2="28.5762" y2="20.1711" gradientUnits="userSpaceOnUse">
<stop stop-color="#AD6FFF"/>
<stop offset="0.51" stop-color="#FD98E8"/>
<stop offset="1" stop-color="#FF7385"/>
</linearGradient>
<linearGradient id="paint3_linear_0_1" x1="18.9228" y1="28.4433" x2="31.627" y2="19.6185" gradientUnits="userSpaceOnUse">
<stop stop-color="#AD6FFF"/>
<stop offset="0.51" stop-color="#FD98E8"/>
<stop offset="1" stop-color="#FF7385"/>
</linearGradient>
<linearGradient id="paint4_linear_0_1" x1="20.9537" y1="25.466" x2="28.5762" y2="20.1711" gradientUnits="userSpaceOnUse">
<stop stop-color="#AD6FFF"/>
<stop offset="0.51" stop-color="#FD98E8"/>
<stop offset="1" stop-color="#FF7385"/>
</linearGradient>
<linearGradient id="paint5_linear_0_1" x1="20.9537" y1="34.4717" x2="27.6214" y2="28.9137" gradientUnits="userSpaceOnUse">
<stop stop-color="#AD6FFF"/>
<stop offset="0.51" stop-color="#FD98E8"/>
<stop offset="1" stop-color="#FF7385"/>
</linearGradient>
<clipPath id="clip0_0_1">
<rect width="24" height="24" fill="white" transform="translate(12 12)"/>
</clipPath>
</defs>
</svg>
