<svg width="32" height="32" viewBox="0 0 32 32" fill="none" xmlns="http://www.w3.org/2000/svg">
<g clip-path="url(#clip0_41_3296)">
<path opacity="0.2" d="M12.465 16.0888C12.3382 16.0086 12.2311 15.9009 12.1515 15.7737C12.072 15.6465 12.0221 15.5031 12.0055 15.354C11.989 15.2049 12.0062 15.054 12.0558 14.9124C12.1055 14.7709 12.1864 14.6423 12.2925 14.5363L18 9H22.95L22.915 8.82875L16 7L9.085 8.82875L5 17L12 22L20 24L25 19L20 15C17.625 17.3912 14.6538 17.4875 12.465 16.0888Z" fill="#FF7385"/>
<path d="M25 19L20 24L12 22L5 17" stroke="#FF7385" stroke-width="1.5" stroke-linecap="round" stroke-linejoin="round"/>
<path d="M9.08398 8.82875L15.999 7L22.914 8.82875" stroke="#FF7385" stroke-width="1.5" stroke-linecap="round" stroke-linejoin="round"/>
<path d="M4.29561 7.5526L1.10561 13.9351C0.987056 14.1722 0.967465 14.4466 1.05114 14.6981C1.13482 14.9496 1.31491 15.1576 1.55186 15.2764L4.99936 17.0001L9.08436 8.82885L5.63811 7.10635C5.52067 7.04746 5.39277 7.01228 5.26173 7.00283C5.13069 6.99339 4.99907 7.00985 4.87439 7.0513C4.74972 7.09274 4.63443 7.15834 4.53512 7.24436C4.43581 7.33038 4.35442 7.43512 4.29561 7.5526Z" stroke="#FF7385" stroke-width="1.5" stroke-linecap="round" stroke-linejoin="round"/>
<path d="M27.001 16.9999L30.4485 15.2761C30.6855 15.1573 30.8656 14.9493 30.9492 14.6978C31.0329 14.4463 31.0133 14.1719 30.8948 13.9349L27.7048 7.55236C27.646 7.43488 27.5646 7.33013 27.4653 7.24412C27.3659 7.1581 27.2507 7.09249 27.126 7.05105C27.0013 7.00961 26.8697 6.99314 26.7386 7.00259C26.6076 7.01204 26.4797 7.04721 26.3623 7.10611L22.916 8.82861L27.001 16.9999Z" stroke="#FF7385" stroke-width="1.5" stroke-linecap="round" stroke-linejoin="round"/>
<path d="M23.0006 9H18.0006L12.2931 14.5363C12.187 14.6423 12.1061 14.7709 12.0564 14.9124C12.0067 15.054 11.9896 15.2049 12.0061 15.354C12.0227 15.5031 12.0726 15.6465 12.1521 15.7737C12.2316 15.9009 12.3388 16.0086 12.4656 16.0888C14.6543 17.4875 17.6256 17.3912 20.0006 15L25.0006 19L27.0006 17" stroke="#FF7385" stroke-width="1.5" stroke-linecap="round" stroke-linejoin="round"/>
<path d="M15.5075 27L10.2925 25.6963L7 23.3438" stroke="#FF7385" stroke-width="1.5" stroke-linecap="round" stroke-linejoin="round"/>
</g>
<defs>
<clipPath id="clip0_41_3296">
<rect width="32" height="32" fill="white"/>
</clipPath>
</defs>
</svg>
