<svg width="32" height="32" viewBox="0 0 32 32" fill="none" xmlns="http://www.w3.org/2000/svg">
<g clip-path="url(#clip0_41_3292)">
<path opacity="0.2" d="M16.0008 28.0001L27.1708 16.6701C28.3431 15.4978 29.0016 13.9079 29.0016 12.2501C29.0016 10.5923 28.3431 9.00235 27.1708 7.83009C25.9986 6.65783 24.4086 5.99927 22.7508 5.99927C21.093 5.99927 19.5031 6.65783 18.3308 7.83009L16.0008 10.0001L13.6708 7.83009C12.4986 6.65783 10.9086 5.99927 9.25082 5.99927C7.593 5.99927 6.00308 6.65783 4.83082 7.83009C3.65857 9.00235 3 10.5923 3 12.2501C3 13.9079 3.65857 15.4978 4.83082 16.6701L16.0008 28.0001Z" fill="#FF7385"/>
<path d="M16.0008 28.0001L27.1708 16.6701C28.3431 15.4978 29.0016 13.9079 29.0016 12.2501C29.0016 10.5923 28.3431 9.00235 27.1708 7.83009C25.9986 6.65783 24.4086 5.99927 22.7508 5.99927C21.093 5.99927 19.5031 6.65783 18.3308 7.83009L16.0008 10.0001L13.6708 7.83009C12.4986 6.65783 10.9086 5.99927 9.25082 5.99927C7.593 5.99927 6.00308 6.65783 4.83082 7.83009C3.65857 9.00235 3 10.5923 3 12.2501C3 13.9079 3.65857 15.4978 4.83082 16.6701L16.0008 28.0001Z" stroke="#FF7385" stroke-width="1.5" stroke-linecap="round" stroke-linejoin="round"/>
</g>
<defs>
<clipPath id="clip0_41_3292">
<rect width="32" height="32" fill="white"/>
</clipPath>
</defs>
</svg>
