<svg width="28" height="26" viewBox="0 0 28 26" fill="none" xmlns="http://www.w3.org/2000/svg">
<path d="M27.7427 10.4014C27.7149 10.2606 27.657 10.1274 27.5731 10.0109C27.4892 9.89445 27.3812 9.79741 27.2565 9.72639L23.5277 7.60139L23.5127 3.39889C23.5123 3.25416 23.4804 3.11125 23.4193 2.98003C23.3583 2.84882 23.2694 2.73242 23.159 2.63889C21.8064 1.49476 20.2488 0.617971 18.569 0.0551389C18.4367 0.0103637 18.2965 -0.00620644 18.1574 0.00649577C18.0184 0.019198 17.8835 0.0608909 17.7615 0.128889L14.0002 2.23139L10.2352 0.125139C10.1132 0.0567579 9.97813 0.0147501 9.83882 0.00183111C9.69951 -0.0110879 9.55904 0.00536923 9.42649 0.0501388C7.7477 0.616586 6.19179 1.49677 4.84149 2.64389C4.7312 2.73729 4.64246 2.85348 4.58139 2.98446C4.52032 3.11545 4.48837 3.25812 4.48774 3.40264L4.46899 7.60889L0.740238 9.73389C0.61549 9.80491 0.507494 9.90195 0.42359 10.0184C0.339686 10.1349 0.281842 10.2681 0.253988 10.4089C-0.0872668 12.1237 -0.0872668 13.889 0.253988 15.6039C0.281842 15.7447 0.339686 15.8779 0.42359 15.9944C0.507494 16.1108 0.61549 16.2079 0.740238 16.2789L4.46899 18.4039L4.48399 22.6076C4.48444 22.7524 4.51631 22.8953 4.57738 23.0265C4.63846 23.1577 4.72729 23.2741 4.83774 23.3676C6.19033 24.5118 7.74793 25.3886 9.42774 25.9514C9.56002 25.9962 9.70022 26.0127 9.8393 26C9.97838 25.9873 10.1133 25.9456 10.2352 25.8776L14.0002 23.7689L17.7652 25.8751C17.9142 25.9582 18.0822 26.0012 18.2527 26.0001C18.362 26.0001 18.4704 25.9824 18.574 25.9476C20.2524 25.3814 21.8082 24.5022 23.159 23.3564C23.2693 23.263 23.358 23.1468 23.4191 23.0158C23.4802 22.8848 23.5121 22.7422 23.5127 22.5976L23.5315 18.3914L27.2602 16.2664C27.385 16.1954 27.493 16.0983 27.5769 15.9819C27.6608 15.8654 27.7186 15.7322 27.7465 15.5914C28.0858 13.8779 28.0846 12.1144 27.7427 10.4014ZM14.0002 18.0001C13.0113 18.0001 12.0446 17.7069 11.2224 17.1575C10.4001 16.6081 9.75928 15.8272 9.38084 14.9136C9.0024 13.9999 8.90338 12.9946 9.09631 12.0247C9.28924 11.0548 9.76544 10.1639 10.4647 9.46461C11.164 8.76534 12.0549 8.28914 13.0248 8.09621C13.9947 7.90329 15 8.0023 15.9137 8.38074C16.8273 8.75918 17.6082 9.40004 18.1576 10.2223C18.707 11.0445 19.0002 12.0112 19.0002 13.0001C19.0002 14.3262 18.4735 15.598 17.5358 16.5357C16.5981 17.4734 15.3263 18.0001 14.0002 18.0001Z" fill="#FF7385"/>
</svg>
