<svg width="48" height="48" viewBox="0 0 48 48" fill="none" xmlns="http://www.w3.org/2000/svg">
<circle cx="24" cy="24" r="23.25" fill="url(#paint0_linear_0_1)" fill-opacity="0.1" stroke="url(#paint1_linear_0_1)" stroke-width="1.5"/>
<g clip-path="url(#clip0_0_1)">
<path d="M15.75 33H32.25" stroke="url(#paint2_linear_0_1)" stroke-width="1.5" stroke-linecap="round" stroke-linejoin="round"/>
<path d="M22.7162 24.75L21.0494 16.9688C20.9795 16.6409 20.9838 16.3017 21.0619 15.9758C21.14 15.6498 21.2899 15.3455 21.5007 15.0849C21.7115 14.8243 21.9779 14.6141 22.2803 14.4697C22.5827 14.3252 22.9136 14.2502 23.2487 14.25H24.7487C25.084 14.25 25.415 14.325 25.7175 14.4694C26.0201 14.6138 26.2865 14.8239 26.4974 15.0845C26.7083 15.3451 26.8583 15.6495 26.9364 15.9755C27.0146 16.3015 27.0189 16.6409 26.9491 16.9688L25.2822 24.75" stroke="url(#paint3_linear_0_1)" stroke-width="1.5" stroke-linecap="round" stroke-linejoin="round"/>
<path d="M31.5 24.75H16.5C16.0858 24.75 15.75 25.0858 15.75 25.5V29.25C15.75 29.6642 16.0858 30 16.5 30H31.5C31.9142 30 32.25 29.6642 32.25 29.25V25.5C32.25 25.0858 31.9142 24.75 31.5 24.75Z" stroke="url(#paint4_linear_0_1)" stroke-width="1.5" stroke-linecap="round" stroke-linejoin="round"/>
</g>
<defs>
<linearGradient id="paint0_linear_0_1" x1="7.75293" y1="47.8186" x2="48.4065" y2="19.5793" gradientUnits="userSpaceOnUse">
<stop stop-color="#AD6FFF"/>
<stop offset="0.51" stop-color="#FD98E8"/>
<stop offset="1" stop-color="#FF7385"/>
</linearGradient>
<linearGradient id="paint1_linear_0_1" x1="7.75293" y1="47.8186" x2="48.4065" y2="19.5793" gradientUnits="userSpaceOnUse">
<stop stop-color="#AD6FFF"/>
<stop offset="0.51" stop-color="#FD98E8"/>
<stop offset="1" stop-color="#FF7385"/>
</linearGradient>
<linearGradient id="paint2_linear_0_1" x1="18.4151" y1="33.9962" x2="18.5716" y2="32.2023" gradientUnits="userSpaceOnUse">
<stop stop-color="#AD6FFF"/>
<stop offset="0.51" stop-color="#FD98E8"/>
<stop offset="1" stop-color="#FF7385"/>
</linearGradient>
<linearGradient id="paint3_linear_0_1" x1="21.9689" y1="24.7103" x2="28.4759" y2="22.1281" gradientUnits="userSpaceOnUse">
<stop stop-color="#AD6FFF"/>
<stop offset="0.51" stop-color="#FD98E8"/>
<stop offset="1" stop-color="#FF7385"/>
</linearGradient>
<linearGradient id="paint4_linear_0_1" x1="18.4151" y1="29.9802" x2="22.0081" y2="22.1361" gradientUnits="userSpaceOnUse">
<stop stop-color="#AD6FFF"/>
<stop offset="0.51" stop-color="#FD98E8"/>
<stop offset="1" stop-color="#FF7385"/>
</linearGradient>
<clipPath id="clip0_0_1">
<rect width="24" height="24" fill="white" transform="translate(12 12)"/>
</clipPath>
</defs>
</svg>
