<svg width="18" height="13" viewBox="0 0 18 13" fill="none" xmlns="http://www.w3.org/2000/svg">
<path fill-rule="evenodd" clip-rule="evenodd" d="M0.736328 6.63112C0.736328 6.48928 0.794765 6.35381 0.891983 6.25181L6.15083 0.939837C6.35855 0.729994 6.69483 0.730525 6.90202 0.939837C7.10973 1.14915 7.10973 1.48915 6.90202 1.69846L2.54948 6.09456H17.2051C17.4983 6.09456 17.7363 6.33468 17.7363 6.63112C17.7363 6.92756 17.4983 7.16768 17.2051 7.16768H2.55002L6.90202 11.5638C7.10973 11.7731 7.1092 12.1131 6.90202 12.3224C6.6943 12.5317 6.35802 12.5317 6.15083 12.3224L0.891983 7.01043C0.792641 6.91002 0.737923 6.7719 0.736328 6.63112Z" fill="black" fill-opacity="0.74"/>
</svg>
