<svg width="17" height="18" viewBox="0 0 17 18" fill="none" xmlns="http://www.w3.org/2000/svg">
<path d="M13.7905 3.98928L14.3308 3.4579L14.9484 4.06522L16.029 3.00243L13.7134 0.725037L12.6327 1.78783L13.2502 2.39511L12.5556 3.07833C8.85056 0.876839 4.06493 2.01553 1.90369 5.65936C-0.257545 9.30318 0.900231 13.858 4.52805 16.0594C8.15588 18.2609 12.9415 17.1222 15.1027 13.4784C17.0324 10.366 16.4921 6.41851 13.7905 3.98928ZM8.54179 14.8448C5.53148 14.8448 3.13868 12.4916 3.13868 9.53095C3.13868 6.57035 5.53148 4.21702 8.54179 4.21702V9.53092H13.9449C13.9449 12.4915 11.5521 14.8448 8.54179 14.8448Z" fill="black"/>
</svg>
