<svg width="33" height="33" viewBox="0 0 33 33" fill="none" xmlns="http://www.w3.org/2000/svg">
<g clip-path="url(#clip0_333_1961)">
<path d="M23.2402 0.166016H9.24023C4.24023 0.166016 0.240234 4.16602 0.240234 9.16602V23.166C0.240234 28.166 4.24023 32.166 9.24023 32.166H23.2402C28.2402 32.166 32.2402 28.166 32.2402 23.166V9.16602C32.2402 4.16602 28.2402 0.166016 23.2402 0.166016Z" fill="#3A559F"/>
<path d="M27.0402 15.566C26.8402 15.366 26.5402 15.166 26.2402 15.166H21.2402V11.366C21.2402 11.266 21.3402 11.166 21.4402 11.166H25.2402C25.8402 11.166 26.2402 10.766 26.2402 10.166V7.16602C26.2402 6.56602 25.8402 6.16602 25.2402 6.16602H21.2402C17.9402 6.16602 16.2402 8.86602 16.2402 12.166V15.166H12.2402C11.6402 15.166 11.2402 15.566 11.2402 16.166V19.166C11.2402 19.766 11.6402 20.166 12.2402 20.166H16.2402V32.166H21.2402V20.166H24.2402C24.6402 20.166 25.0402 19.966 25.1402 19.566L27.1402 16.566C27.3402 16.266 27.2402 15.866 27.0402 15.566Z" fill="white"/>
</g>
<defs>
<clipPath id="clip0_333_1961">
<rect width="32" height="32" fill="white" transform="translate(0.240234 0.166016)"/>
</clipPath>
</defs>
</svg>
