<svg width="42" height="28" viewBox="0 0 42 28" fill="none" xmlns="http://www.w3.org/2000/svg">
<rect width="42" height="28" rx="14" fill="white"/>
<rect x="0.5" y="0.5" width="41" height="27" rx="13.5" stroke="#110044" stroke-opacity="0.1"/>
<g clip-path="url(#clip0_41_3822)">
<path d="M13.3867 10.2892C13.1055 10.627 12.6555 10.8934 12.2055 10.8554C12.1492 10.3987 12.3695 9.91342 12.6273 9.6137C12.9086 9.26641 13.4008 9.01903 13.7992 9C13.8461 9.47574 13.6633 9.94196 13.3867 10.2892ZM13.7945 10.9458C13.143 10.9077 12.5851 11.3216 12.2758 11.3216C11.9617 11.3216 11.4883 10.9648 10.9726 10.9743C10.3023 10.9838 9.67889 11.3692 9.3367 11.9829C8.63358 13.2103 9.15389 15.0276 9.83358 16.0266C10.1664 16.5214 10.5648 17.0637 11.0898 17.0447C11.5867 17.0257 11.7836 16.7165 12.3836 16.7165C12.9883 16.7165 13.1617 17.0447 13.6867 17.0352C14.2305 17.0257 14.5726 16.5404 14.9055 16.0457C15.2851 15.4843 15.4398 14.9372 15.4492 14.9087C15.4398 14.8991 14.3992 14.4948 14.3898 13.2769C14.3805 12.2588 15.2101 11.7735 15.2476 11.745C14.7789 11.0409 14.0476 10.9648 13.7945 10.9458ZM17.5586 9.56613V16.9829H18.693V14.4472H20.2633C21.6976 14.4472 22.7055 13.4481 22.7055 12.0019C22.7055 10.5557 21.7164 9.56613 20.3008 9.56613H17.5586ZM18.693 10.5366H20.0008C20.9851 10.5366 21.5476 11.0695 21.5476 12.0067C21.5476 12.9439 20.9851 13.4814 19.9961 13.4814H18.693V10.5366ZM24.7773 17.04C25.4898 17.04 26.1508 16.6736 26.4508 16.0932H26.4742V16.9829H27.5242V13.2912C27.5242 12.2207 26.6805 11.5309 25.382 11.5309C24.1773 11.5309 23.2867 12.2303 23.2539 13.1912H24.2758C24.3601 12.7345 24.7773 12.4348 25.3492 12.4348C26.043 12.4348 26.432 12.7631 26.432 13.3673V13.7764L25.0164 13.862C23.6992 13.9429 22.9867 14.49 22.9867 15.4415C22.9867 16.4025 23.7226 17.04 24.7773 17.04ZM25.082 16.1598C24.4773 16.1598 24.093 15.8649 24.093 15.4129C24.093 14.9467 24.4633 14.6755 25.1711 14.6327L26.432 14.5519V14.9705C26.432 15.6651 25.8508 16.1598 25.082 16.1598ZM28.9258 19C30.032 19 30.5523 18.5718 31.007 17.2731L32.9992 11.6023H31.8461L30.5101 15.9838H30.4867L29.1508 11.6023H27.9648L29.8867 17.0019L29.7836 17.3302C29.6101 17.8868 29.3289 18.1009 28.8273 18.1009C28.7383 18.1009 28.5648 18.0913 28.4945 18.0818V18.9715C28.5601 18.9905 28.8414 19 28.9258 19Z" fill="black"/>
</g>
<defs>
<clipPath id="clip0_41_3822">
<rect width="24" height="10" fill="white" transform="translate(9 9)"/>
</clipPath>
</defs>
</svg>
